<svg width="80" height="80" viewBox="0 0 80 80" fill="none" xmlns="http://www.w3.org/2000/svg">
<rect width="80" height="80" rx="40" fill="#523022"/>
<path d="M33.637 32.5C35.149 30.67 37.438 29.5 40 29.5C42.562 29.5 44.851 30.67 46.363 32.5C47.3585 33.7069 47.9902 35.172 48.1846 36.7244C48.379 38.2768 48.1279 39.8524 47.4607 41.2675C46.7935 42.6826 45.7378 43.8789 44.4165 44.7167C43.0952 45.5545 41.563 45.9993 39.9985 45.9993C38.434 45.9993 36.9018 45.5545 35.5805 44.7167C34.2592 43.8789 33.2035 42.6826 32.5363 41.2675C31.8691 39.8524 31.6181 38.2768 31.8124 36.7244C32.0068 35.172 32.6385 33.7069 33.634 32.5M51.247 37.75C51.247 35.854 50.779 34.066 49.951 32.5H62.5C63.6935 32.5 64.8381 32.9741 65.682 33.818C66.5259 34.6619 67 35.8065 67 37V38.5C67 43.261 63.382 48.136 57.055 49.852C56.4048 48.684 55.4543 47.7111 54.3018 47.0338C53.1493 46.3566 51.8367 45.9996 50.5 46H47.65C48.7871 44.9479 49.694 43.6717 50.3136 42.2518C50.9332 40.832 51.252 39.2992 51.25 37.75M50.5 49C51.0914 48.9984 51.6773 49.1137 52.2239 49.3393C52.7706 49.5649 53.2673 49.8963 53.6855 50.3145C54.1037 50.7327 54.4351 51.2294 54.6607 51.7761C54.8863 52.3227 55.0016 52.9086 55 53.5V55C55 60.913 49.42 67 40 67C30.58 67 25 60.913 25 55V53.5C24.9984 52.9086 25.1137 52.3227 25.3393 51.7761C25.5649 51.2294 25.8963 50.7327 26.3145 50.3145C26.7327 49.8963 27.2294 49.5649 27.7761 49.3393C28.3227 49.1137 28.9086 48.9984 29.5 49H50.5ZM13 38.5C13 43.261 16.618 48.136 22.945 49.852C23.5952 48.684 24.5457 47.7111 25.6982 47.0338C26.8507 46.3566 28.1633 45.9996 29.5 46H32.35C31.2129 44.9479 30.306 43.6717 29.6864 42.2518C29.0668 40.832 28.748 39.2992 28.75 37.75C28.75 35.854 29.218 34.066 30.049 32.5H17.5C16.3065 32.5 15.1619 32.9741 14.318 33.818C13.4741 34.6619 13 35.8065 13 37V38.5ZM36.25 21.25C36.25 19.062 35.3808 16.9635 33.8336 15.4164C32.2865 13.8692 30.188 13 28 13C25.812 13 23.7135 13.8692 22.1664 15.4164C20.6192 16.9635 19.75 19.062 19.75 21.25C19.75 23.438 20.6192 25.5365 22.1664 27.0836C23.7135 28.6308 25.812 29.5 28 29.5C30.188 29.5 32.2865 28.6308 33.8336 27.0836C35.3808 25.5365 36.25 23.438 36.25 21.25ZM60.25 21.25C60.25 19.062 59.3808 16.9635 57.8336 15.4164C56.2865 13.8692 54.188 13 52 13C49.812 13 47.7135 13.8692 46.1664 15.4164C44.6192 16.9635 43.75 19.062 43.75 21.25C43.75 23.438 44.6192 25.5365 46.1664 27.0836C47.7135 28.6308 49.812 29.5 52 29.5C54.188 29.5 56.2865 28.6308 57.8336 27.0836C59.3808 25.5365 60.25 23.438 60.25 21.25Z" fill="#FF7331"/>
</svg>
