<svg width="24" height="24" viewBox="0 0 24 24" fill="none" xmlns="http://www.w3.org/2000/svg">
<path d="M8.268 15.5C7.56696 15.5 7 16.0663 7 16.768V17.127C7 17.3148 7.0014 18.3998 7.62875 19.4458L8.268 15.5ZM8.268 15.5H15.732M8.268 15.5H15.732M15.732 15.5C16.4329 15.5 17 16.0671 17 16.768M15.732 15.5L17 16.768M17 16.768V17.128M17 16.768V17.128M17 17.128C17 17.3138 16.9986 18.3997 16.3714 19.4455M17 17.128L16.3714 19.4455M16.3714 19.4455C15.7268 20.5157 14.4535 21.5 12 21.5C9.54635 21.5 8.27228 20.5157 7.62878 19.4458L16.3714 19.4455ZM3.55835 13.1884L3.55849 13.1886C3.92931 13.8054 4.56677 14.4349 5.68553 14.7646C5.57943 14.9013 5.48413 15.0464 5.40064 15.1987C4.26926 14.83 3.56209 14.1652 3.12858 13.4455C2.5014 12.3997 2.5 11.3138 2.5 11.128V10.768C2.5 10.067 3.06633 9.5 3.768 9.5H7.75623C7.69833 9.66363 7.64991 9.83057 7.61125 10H3.768C3.34386 10 3 10.3439 3 10.768V11.125C3 11.2868 3.00122 12.2606 3.55835 13.1884ZM8.268 16L8.26431 16C8.06207 16.0015 7.86853 16.0825 7.72552 16.2255C7.58251 16.3685 7.50151 16.5621 7.50001 16.7643H7.5V16.768V17.125C7.5 17.2867 7.50118 18.2607 8.05849 19.1876C8.32061 19.6242 8.7267 20.0854 9.37239 20.4337C10.0153 20.7805 10.8673 21 12 21C13.1327 21 13.9847 20.7805 14.6276 20.4337C15.2733 20.0854 15.6794 19.6242 15.9415 19.1876C16.4988 18.2607 16.5 17.2867 16.5 17.125L16.5 16.768L16.5 16.7643C16.4985 16.5621 16.4175 16.3685 16.2745 16.2255C16.1315 16.0825 15.9379 16.0015 15.7357 16V16H15.732L8.268 16ZM7.5 3C6.96957 3 6.46086 3.21071 6.08579 3.58579C5.71071 3.96086 5.5 4.46957 5.5 5C5.5 5.53043 5.71071 6.03914 6.08579 6.41421C6.46086 6.78929 6.96957 7 7.5 7C8.03043 7 8.53914 6.78929 8.91421 6.41421C9.28929 6.03914 9.5 5.53043 9.5 5C9.5 4.46957 9.28929 3.96086 8.91421 3.58579C8.53914 3.21071 8.03043 3 7.5 3ZM5 5C5 4.33696 5.26339 3.70107 5.73223 3.23223C6.20107 2.76339 6.83696 2.5 7.5 2.5C8.16304 2.5 8.79893 2.76339 9.26777 3.23223C9.73661 3.70107 10 4.33696 10 5C10 5.66304 9.73661 6.29893 9.26777 6.76777C8.79893 7.23661 8.16304 7.5 7.5 7.5C6.83696 7.5 6.20107 7.23661 5.73223 6.76777C5.26339 6.29893 5 5.66304 5 5ZM20.232 10H16.3885C16.3498 9.8294 16.3013 9.66254 16.2439 9.5H20.232C20.9329 9.5 21.5 10.0681 21.5 10.767V11.127C21.5 11.3147 21.4986 12.3996 20.8705 13.4454C20.438 14.1649 19.731 14.8299 18.5995 15.1987C18.5158 15.0461 18.4203 14.901 18.3143 14.7647C19.4332 14.4349 20.0708 13.8051 20.4417 13.1873C20.9988 12.2605 21 11.2867 21 11.125V10.768C21 10.3439 20.6561 10 20.232 10ZM15.0858 3.58579C14.7107 3.96086 14.5 4.46957 14.5 5C14.5 5.53043 14.7107 6.03914 15.0858 6.41421C15.4609 6.78929 15.9696 7 16.5 7C17.0304 7 17.5391 6.78929 17.9142 6.41421C18.2893 6.03914 18.5 5.53043 18.5 5C18.5 4.46957 18.2893 3.96086 17.9142 3.58579C17.5391 3.21071 17.0304 3 16.5 3C15.9696 3 15.4609 3.21071 15.0858 3.58579ZM14.7322 3.23223C15.2011 2.76339 15.837 2.5 16.5 2.5C17.163 2.5 17.7989 2.76339 18.2678 3.23223C18.7366 3.70107 19 4.33696 19 5C19 5.66304 18.7366 6.29893 18.2678 6.76777C17.7989 7.23661 17.163 7.5 16.5 7.5C15.837 7.5 15.2011 7.23661 14.7322 6.76777C14.2634 6.29893 14 5.66304 14 5C14 4.33696 14.2634 3.70107 14.7322 3.23223ZM12 9C11.7374 9 11.4773 9.05173 11.2346 9.15224C10.992 9.25275 10.7715 9.40007 10.5858 9.58579C10.4001 9.7715 10.2528 9.99198 10.1522 10.2346C10.0517 10.4773 10 10.7374 10 11C10 11.2626 10.0517 11.5227 10.1522 11.7654C10.2528 12.008 10.4001 12.2285 10.5858 12.4142C10.7715 12.5999 10.992 12.7472 11.2346 12.8478C11.4773 12.9483 11.7374 13 12 13C12.5304 13 13.0391 12.7893 13.4142 12.4142C13.7893 12.0391 14 11.5304 14 11C14 10.4696 13.7893 9.96086 13.4142 9.58579C13.0391 9.21071 12.5304 9 12 9ZM9.5 11C9.5 10.337 9.76339 9.70107 10.2322 9.23223C10.7011 8.76339 11.337 8.5 12 8.5C12.663 8.5 13.2989 8.76339 13.7678 9.23223C14.2366 9.70107 14.5 10.337 14.5 11C14.5 11.663 14.2366 12.2989 13.7678 12.7678C13.2989 13.2366 12.663 13.5 12 13.5C11.337 13.5 10.7011 13.2366 10.2322 12.7678C9.76339 12.2989 9.5 11.663 9.5 11Z" stroke="#F0F0F0"/>
</svg>
