<svg width="23" height="23" viewBox="0 0 23 23" fill="none" xmlns="http://www.w3.org/2000/svg">
<g clip-path="url(#clip0_170_3484)">
<path d="M11.5005 0.937499L11.4995 0.9375C8.69919 0.940571 6.0145 2.05433 4.03442 4.03442C2.05433 6.0145 0.940571 8.69919 0.9375 11.4995L0.937489 11.5101L0.937927 11.5207C1.51675 25.5097 21.4854 25.5047 22.0621 11.5205L22.0625 11.51L22.0625 11.4994C22.0594 8.69912 20.9457 6.01445 18.9656 4.03438C16.9855 2.05432 14.3008 0.940569 11.5005 0.937499ZM10.7337 11.6964L10.8713 11.2903L10.491 11.0924C10.3045 10.9954 10.1558 10.8389 10.0684 10.6478C9.98102 10.4566 9.95992 10.2418 10.0085 10.0373C10.057 9.83286 10.1725 9.65045 10.3365 9.51902C10.5005 9.3876 10.7037 9.31469 10.9138 9.31186L10.9398 9.31151L10.9657 9.30846C11.2817 9.27118 11.6019 9.32045 11.8921 9.45102C12.1823 9.58159 12.4316 9.78854 12.6133 10.0498L12.6137 10.0504C12.9648 10.5534 12.9319 11.0735 12.7243 11.7505C12.657 11.97 12.5814 12.1769 12.5005 12.398C12.4502 12.5357 12.3978 12.6789 12.3442 12.8341C12.2151 13.2079 12.0924 13.6172 12.0471 14.0438C11.9251 14.6872 11.8504 15.3388 11.8234 15.9932L11.8048 16.4455L12.253 16.5088C12.4879 16.542 12.7014 16.6631 12.8506 16.8475C12.9998 17.032 13.0735 17.2661 13.0568 17.5028C13.0402 17.7394 12.9344 17.9609 12.7609 18.1227C12.5874 18.2844 12.359 18.3744 12.1217 18.3744H11.5983C11.1642 18.372 10.7481 18.2004 10.4385 17.896C10.129 17.5917 9.95044 17.1786 9.9407 16.7447C9.91476 15.029 10.183 13.3216 10.7337 11.6964ZM11.6938 7.21904C9.97727 7.14833 9.99544 4.69383 11.6938 4.62595C13.3926 4.69581 13.4102 7.14685 11.6938 7.21904Z" stroke="#F0F0F0"/>
</g>
<defs>
<clipPath id="clip0_170_3484">
<rect width="23" height="23" fill="white"/>
</clipPath>
</defs>
</svg>
