<svg width="20" height="20" viewBox="0 0 20 20" fill="none" xmlns="http://www.w3.org/2000/svg">
<path d="M6.25033 2.91675C5.9188 2.91675 5.60086 3.04844 5.36644 3.28286C5.13202 3.51729 5.00033 3.83523 5.00033 4.16675C5.00033 4.49827 5.13202 4.81621 5.36644 5.05063C5.60086 5.28505 5.9188 5.41675 6.25033 5.41675C6.58185 5.41675 6.89979 5.28505 7.13421 5.05063C7.36863 4.81621 7.50033 4.49827 7.50033 4.16675C7.50033 3.83523 7.36863 3.51729 7.13421 3.28286C6.89979 3.04844 6.58185 2.91675 6.25033 2.91675ZM3.75033 4.16675C3.75033 3.50371 4.01372 2.86782 4.48256 2.39898C4.9514 1.93014 5.58728 1.66675 6.25033 1.66675C6.91337 1.66675 7.54925 1.93014 8.01809 2.39898C8.48693 2.86782 8.75033 3.50371 8.75033 4.16675C8.75033 4.82979 8.48693 5.46567 8.01809 5.93451C7.54925 6.40336 6.91337 6.66675 6.25033 6.66675C5.58728 6.66675 4.9514 6.40336 4.48256 5.93451C4.01372 5.46567 3.75033 4.82979 3.75033 4.16675ZM3.14033 7.50008C2.32533 7.50008 1.66699 8.15925 1.66699 8.97341V9.27341C1.66699 9.44591 1.66699 10.4467 2.25033 11.4192C2.70699 12.1776 3.48116 12.8584 4.72949 13.1634C4.90061 12.709 5.21019 12.3198 5.61449 12.0509C4.27866 11.9084 3.64699 11.3151 3.32283 10.7759C2.91949 10.1042 2.91699 9.38925 2.91699 9.27091V8.97341C2.91699 8.85008 3.01699 8.75008 3.14033 8.75008H6.69199C6.74761 8.30954 6.89069 7.88456 7.11283 7.50008H3.14033ZM12.8878 7.50008C13.1053 7.87675 13.252 8.29925 13.3078 8.75008H16.8603C16.9837 8.75008 17.0837 8.85008 17.0837 8.97341V9.27091C17.0837 9.38925 17.0812 10.1042 16.6778 10.7751C16.3537 11.3151 15.722 11.9084 14.3862 12.0509C14.7862 12.3176 15.0995 12.7059 15.2712 13.1634C16.5195 12.8584 17.2937 12.1776 17.7495 11.4192C18.3337 10.4467 18.3337 9.44675 18.3337 9.27258V8.97258C18.3337 8.16008 17.6745 7.50008 16.8603 7.50008H12.8878ZM12.5003 4.16675C12.5003 3.83523 12.632 3.51729 12.8664 3.28286C13.1009 3.04844 13.4188 2.91675 13.7503 2.91675C14.0818 2.91675 14.3998 3.04844 14.6342 3.28286C14.8686 3.51729 15.0003 3.83523 15.0003 4.16675C15.0003 4.49827 14.8686 4.81621 14.6342 5.05063C14.3998 5.28505 14.0818 5.41675 13.7503 5.41675C13.4188 5.41675 13.1009 5.28505 12.8664 5.05063C12.632 4.81621 12.5003 4.49827 12.5003 4.16675ZM13.7503 1.66675C13.0873 1.66675 12.4514 1.93014 11.9826 2.39898C11.5137 2.86782 11.2503 3.50371 11.2503 4.16675C11.2503 4.82979 11.5137 5.46567 11.9826 5.93451C12.4514 6.40336 13.0873 6.66675 13.7503 6.66675C14.4134 6.66675 15.0493 6.40336 15.5181 5.93451C15.9869 5.46567 16.2503 4.82979 16.2503 4.16675C16.2503 3.50371 15.9869 2.86782 15.5181 2.39898C15.0493 1.93014 14.4134 1.66675 13.7503 1.66675ZM10.0003 7.91675C9.83617 7.91675 9.67363 7.94908 9.52197 8.0119C9.37031 8.07472 9.23251 8.16679 9.11644 8.28286C9.00037 8.39894 8.90829 8.53674 8.84548 8.68839C8.78266 8.84005 8.75033 9.0026 8.75033 9.16675C8.75033 9.3309 8.78266 9.49345 8.84548 9.6451C8.90829 9.79676 9.00037 9.93456 9.11644 10.0506C9.23251 10.1667 9.37031 10.2588 9.52197 10.3216C9.67363 10.3844 9.83617 10.4167 10.0003 10.4167C10.3318 10.4167 10.6498 10.2851 10.8842 10.0506C11.1186 9.81621 11.2503 9.49827 11.2503 9.16675C11.2503 8.83523 11.1186 8.51728 10.8842 8.28286C10.6498 8.04844 10.3318 7.91675 10.0003 7.91675ZM7.50033 9.16675C7.50033 8.50371 7.76372 7.86782 8.23256 7.39898C8.7014 6.93014 9.33728 6.66675 10.0003 6.66675C10.6634 6.66675 11.2993 6.93014 11.7681 7.39898C12.2369 7.86782 12.5003 8.50371 12.5003 9.16675C12.5003 9.82979 12.2369 10.4657 11.7681 10.9345C11.2993 11.4034 10.6634 11.6667 10.0003 11.6667C9.33728 11.6667 8.7014 11.4034 8.23256 10.9345C7.76372 10.4657 7.50033 9.82979 7.50033 9.16675ZM5.41699 13.9734C5.41699 13.1584 6.07616 12.5001 6.89033 12.5001H13.1103C13.9245 12.5001 14.5837 13.1592 14.5837 13.9734V14.2734C14.5837 14.4459 14.5837 15.4467 14.0003 16.4192C13.3812 17.4476 12.1778 18.3334 10.0003 18.3334C7.82283 18.3334 6.61866 17.4476 6.00033 16.4192C5.41699 15.4467 5.41699 14.4467 5.41699 14.2726V13.9734ZM6.89033 13.7501C6.83123 13.7505 6.77468 13.7742 6.73289 13.816C6.6911 13.8578 6.66743 13.9143 6.66699 13.9734V14.2709C6.66699 14.3892 6.66949 15.1042 7.07283 15.7751C7.44449 16.3942 8.22033 17.0834 10.0003 17.0834C11.7803 17.0834 12.5562 16.3942 12.9278 15.7751C13.3312 15.1042 13.3337 14.3892 13.3337 14.2709V13.9734C13.3332 13.9143 13.3096 13.8578 13.2678 13.816C13.226 13.7742 13.1694 13.7505 13.1103 13.7501H6.89033Z" fill="#FAFAFA"/>
</svg>
