<svg width="500" height="530" viewBox="0 0 500 530" fill="none" xmlns="http://www.w3.org/2000/svg">
<mask id="mask0_97_1923" style="mask-type:luminance" maskUnits="userSpaceOnUse" x="0" y="0" width="500" height="530">
<path d="M0 0H500V529.259H0V0Z" fill="white"/>
</mask>
<g mask="url(#mask0_97_1923)">
<mask id="mask1_97_1923" style="mask-type:luminance" maskUnits="userSpaceOnUse" x="0" y="0" width="500" height="529">
<path fill-rule="evenodd" clip-rule="evenodd" d="M233.757 330.147C233.46 329.257 233.46 329.257 233.164 329.85C229.595 344.118 223.652 357.19 215.632 369.076C205.536 383.937 190.388 394.339 181.775 410.378C176.426 420.483 174.052 430.588 175.239 440.99C175.536 442.177 175.239 442.474 174.646 441.287C169.899 434.158 167.516 426.129 167.22 417.22C166.33 399.688 172.272 385.124 184.445 373.238C188.608 369.372 193.067 365.219 198.704 360.76C207.91 353.324 214.149 343.822 217.718 332.826C218.015 331.936 217.718 331.936 217.422 332.53C206.426 344.118 192.464 349.468 175.832 348.874C174.646 348.874 174.646 348.578 175.832 348.281C187.718 344.118 197.517 337.286 205.536 327.477C217.125 312.912 219.498 293.898 210.292 277.85C208.809 274.883 207.02 272.204 205.24 269.237C204.646 268.347 204.35 268.644 204.35 269.534C205.536 290.634 193.067 306.97 175.239 317.075C175.239 317.372 175.239 317.372 175.239 317.372C174.942 317.372 174.942 317.075 174.942 317.075C185.048 302.223 188.904 286.472 192.761 268.347C193.067 268.05 192.761 268.05 192.761 268.05H192.464C192.464 268.05 192.464 268.05 192.168 268.05C190.388 273.094 187.718 279.046 183.852 285.582C174.646 301.926 160.684 309.946 142.568 309.649C141.085 309.649 141.085 309.352 142.272 308.759C159.497 299.544 169.602 282.012 177.019 264.778C177.622 263.591 177.325 263.591 176.722 264.481C170.492 271.907 163.956 278.443 156.234 284.682C142.568 295.974 127.123 299.544 109.601 295.381C120.29 290.634 130.099 284.386 139.898 276.663C148.511 269.83 156.53 262.108 164.55 254.079C166.33 252.299 166.033 252.002 163.956 253.189C154.157 259.428 144.052 265.074 133.362 269.83C109.007 280.826 84.6527 281.122 64.4514 261.811C62.968 260.615 61.4847 259.428 60.5946 258.242C60.0013 257.648 60.0013 257.648 60.8913 257.945C74.8533 263.591 90.2895 260.912 104.251 255.859C124.156 248.73 143.458 240.117 162.176 230.308C162.176 230.012 162.176 230.012 162.176 230.012V229.715C162.176 229.715 162.176 229.715 161.88 229.715C139.602 236.251 121.774 240.71 109.007 243.677C99.5048 245.763 88.5094 246.653 78.4134 245.17C52.5753 241.897 35.3406 223.476 24.9479 199.408C24.9479 198.815 24.9479 198.815 25.2446 199.112C43.0633 218.423 70.6907 223.476 96.2321 221.686C116.73 220.203 137.516 216.94 158.904 211.59C158.904 211.59 159.2 211.294 158.904 211.294V210.997H158.607C140.492 210.997 123.563 210.7 108.117 210.7C100.395 210.404 92.6721 209.801 85.8394 208.911C66.528 206.241 48.116 196.136 36.5366 180.088C27.0246 166.422 23.1679 150.078 25.5413 130.766C28.5172 105.503 42.47 81.4356 60.5946 63.3109H60.8913L61.188 63.6076C49.896 77.8663 45.1493 98.0769 44.2593 116.795C43.6659 126.01 44.5559 134.623 46.6326 142.355C52.5753 163.446 70.6907 178.604 90.5954 185.437C99.5048 188.116 109.007 190.786 119.4 192.566L119.697 192.27C119.697 191.973 119.697 191.973 119.4 191.973C98.0121 184.547 75.15 170.882 66.528 149.484C63.5613 142.948 62.3747 134.623 62.078 124.824C60.8913 69.2536 99.8014 14.8703 154.157 0.314941C155.047 0.314941 155.344 0.314941 154.454 0.908281C152.071 2.98497 149.104 4.47759 146.731 6.55428C137.516 14.277 129.793 23.1956 123.859 33.3009C111.677 54.0956 108.414 76.383 114.051 100.154C120.29 127.494 137.219 152.748 158.014 172.068C159.2 172.958 159.2 173.255 157.717 172.662C128.606 160.183 107.227 138.489 99.2081 107.589C95.0454 92.1343 95.3421 76.9763 99.8014 61.8276C100.395 58.8516 100.098 58.8516 98.9114 61.5309C80.7867 94.5076 90.8921 133.436 117.917 158.394C137.219 175.934 158.904 186.03 182.665 188.71C188.311 189.6 193.957 189.896 199.89 190.193C200.484 190.193 200.79 190.49 200.484 190.786C195.144 219.61 204.053 244.567 223.355 265.668C237.021 279.936 247.413 291.821 254.839 309.946C259.002 319.754 260.189 329.85 262.562 340.252C266.131 356.3 271.175 369.669 277.414 380.664C282.17 388.99 288.113 397.899 294.639 407.114C300.879 415.43 305.041 425.239 306.821 435.938C310.678 460.302 299.099 480.512 278.897 494.771C278.304 495.364 278.304 495.068 278.601 494.474C279.5 492.694 280.39 490.608 280.983 488.828C287.816 467.728 286.027 447.823 275.337 428.808C269.395 418.703 265.538 411.277 263.452 406.818C256.925 393.143 252.763 378.291 251.576 362.54C251.279 357.784 250.686 352.731 250.093 347.984C250.093 347.678 250.093 347.678 249.796 347.678H249.499C249.203 356.004 248.313 364.32 247.117 372.645C245.04 386.607 240.59 399.985 233.46 412.167C229.001 419.89 225.144 427.316 221.872 433.861C213.852 450.493 212.072 468.034 217.422 486.455C218.015 489.125 219.202 491.804 220.982 494.474C221.872 495.661 221.575 495.958 220.388 495.068C199.89 480.809 189.201 459.412 193.067 435.048C194.847 424.646 199 415.134 205.833 405.928C214.742 394.339 221.575 383.047 226.331 372.645C232.57 358.97 234.944 344.712 233.757 330.147ZM272.964 528.647C251.873 523.001 238.207 506.36 234.054 485.565C231.375 471.594 231.375 458.522 234.647 445.746C238.207 431.775 244.743 418.406 249.203 405.334C249.499 404.435 250.093 404.435 250.389 405.334C253.653 414.54 257.222 423.459 260.485 432.072C267.021 447.823 268.801 463.278 265.835 478.426C262.265 496.551 261.969 512.302 273.557 527.757C274.151 528.647 273.854 528.944 272.964 528.647ZM289.596 331.046C288.409 328.96 287.519 326.884 286.62 325.104C286.323 323.611 286.62 323.314 287.519 324.501C297.319 334.903 309.491 342.932 324.047 348.281C324.937 348.578 324.937 348.874 324.047 348.874C308.898 349.764 297.319 343.822 289.596 331.046ZM270.878 310.242C275.041 331.343 286.323 350.654 303.855 363.43C315.137 371.458 324.937 381.258 329.693 394.636C335.339 410.674 333.846 425.832 325.53 440.694C324.937 442.177 324.343 442.177 324.64 440.397C325.827 422.866 318.104 406.521 305.931 394.042C300.285 388.396 295.539 383.047 290.783 377.401C275.931 359.573 268.801 338.176 269.691 313.209C269.691 312.319 269.988 311.132 270.285 310.242C270.581 309.352 270.581 309.352 270.878 310.242ZM357.608 474.57C340.975 482.292 323.453 488.235 305.041 492.398C304.151 492.694 304.151 492.398 304.745 491.804C313.357 481.996 319.3 471.297 322.563 459.412C322.563 459.115 322.86 458.818 323.157 458.522C323.75 458.225 324.343 457.632 324.937 457.632C360.88 443.66 391.771 422.569 417.016 394.339C422.958 387.497 428.002 380.961 432.758 374.128C460.978 332.233 472.855 285.285 468.099 233.284C467.802 232.385 468.099 231.495 468.701 230.902C479.391 216.346 485.927 200.595 488.597 183.36C488.893 181.571 489.19 181.571 489.783 183.36C493.649 197.619 496.319 212.777 497.803 228.232C503.745 290.931 488.597 347.085 452.06 397.306C428.002 430.588 393.848 457.632 357.608 474.57ZM195.144 492.694C144.645 480.809 100.098 456.139 65.0447 418.11C26.4313 376.205 3.85654 322.721 1.18651 266.558C-0.00017058 238.624 2.96653 210.7 10.3925 182.767C10.6892 181.877 10.9859 181.877 10.9859 182.767C13.6652 197.026 18.4119 210.404 25.5413 222.289C27.6272 225.552 30.0006 228.232 31.7806 231.198C32.0773 231.792 32.0773 232.088 32.0773 232.682C21.9812 325.104 72.7674 409.191 155.344 449.01C161.88 451.986 168.703 454.952 175.832 457.928C176.722 458.225 177.325 458.818 177.325 459.708C180.588 471.89 186.531 482.589 195.44 492.101C195.737 492.694 195.737 492.694 195.144 492.694ZM267.318 178.901C254.839 197.619 250.983 218.126 259.892 239.524C262.265 244.873 264.648 250.519 267.615 256.165C272.667 266.854 275.337 277.256 275.337 287.362C275.337 289.735 275.041 289.735 274.447 287.658C272.371 278.443 263.758 268.347 256.925 262.998C245.337 253.189 234.647 244.873 229.891 230.012C229.298 227.935 229.001 225.849 228.408 224.069C227.814 222.882 227.814 222.882 227.518 224.069C226.924 237.141 229.891 248.136 236.427 257.648C237.317 258.538 237.021 258.835 236.131 257.945C220.685 248.136 213.556 233.581 214.742 214.854C215.632 200.002 221.872 188.116 230.188 176.231C236.724 166.719 238.504 153.944 229.298 145.618C226.628 143.245 223.355 141.762 219.202 140.862C209.996 139.379 201.976 141.456 195.144 147.102C194.55 147.408 194.254 147.408 194.254 146.805C194.55 138.489 197.22 130.173 204.053 125.417C206.13 123.924 208.503 123.628 210.292 122.441C210.886 122.144 211.182 121.848 211.182 121.254C214.149 113.532 219.202 108.182 226.628 105.8C231.968 103.723 238.504 101.646 245.633 99.5603C258.409 95.7036 268.801 87.9716 275.931 76.9763C278.007 74.0096 279.194 71.3303 280.093 68.3636C280.687 66.871 280.983 66.871 280.983 68.3636C282.467 82.029 278.897 95.101 266.131 102.24C264.351 103.13 264.648 103.426 266.428 102.833C280.983 98.967 293.453 89.7516 297.319 74.8996C297.615 74.0096 297.912 74.0096 297.912 74.8996C300.879 93.321 293.156 113.235 273.854 117.685C272.964 117.982 272.964 118.278 273.854 118.575C284.84 122.144 294.343 121.551 302.955 116.795C304.151 116.202 304.448 116.498 303.855 117.982C297.912 128.087 288.706 133.436 275.634 134.623C275.337 134.623 275.337 134.92 275.337 135.216C288.113 149.781 291.079 169.982 285.73 188.116C282.763 198.212 278.897 208.021 278.007 218.126C277.117 225.256 278.007 232.088 280.093 238.624C280.687 240.414 280.39 240.71 278.897 239.524C264.351 225.256 260.189 204.452 266.131 185.14C266.725 183.064 267.318 181.274 267.911 179.198C268.208 178.308 268.208 178.011 267.318 178.901ZM231.671 127.79C238.504 126.604 240.59 121.848 245.04 117.388C245.633 116.795 245.633 116.498 244.743 116.498C234.054 117.388 226.034 118.881 218.015 127.197C217.718 127.494 218.015 127.79 218.312 127.79C223.058 128.384 227.518 128.384 231.671 127.79ZM372.46 76.383C334.745 47.8563 287.519 32.4016 240.293 35.0809C200.484 37.1576 159.497 51.1289 128.013 76.0863C127.42 76.383 127.42 76.383 127.42 75.7896C127.716 62.7176 130.989 49.9423 137.219 38.0476C138.415 36.2676 139.602 34.7843 141.382 33.8943C167.22 18.7363 197.22 10.4203 227.518 7.14762C272.667 2.39163 319.893 11.3103 359.99 34.4876C360.88 35.0809 361.474 35.6743 361.77 36.2676C368.9 48.4496 372.46 61.8276 372.756 76.383C372.756 76.6796 372.46 76.6796 372.46 76.383ZM335.932 230.012C338.305 231.198 340.382 232.385 342.765 233.581C360.287 241.897 378.106 249.323 396.221 255.859C410.48 260.912 424.442 263.591 438.7 258.242C439.887 257.945 439.887 257.945 439.294 258.835C422.958 274.883 404.537 280.529 383.752 276.07C377.216 274.586 369.196 271.61 359.99 266.854C350.784 262.404 342.468 257.648 334.745 252.892C334.143 252.299 334.143 252.299 334.745 253.189C346.325 265.668 359.397 276.96 374.249 286.768C378.996 290.032 384.048 292.414 389.388 294.491C390.584 295.084 390.584 295.381 389.388 295.381C371.57 299.247 356.718 296.28 342.765 284.089C335.339 277.85 328.803 271.017 323.157 263.888C322.267 262.701 321.97 262.701 322.563 264.184C330.286 282.309 339.789 299.544 358.21 309.056C358.803 309.352 358.803 309.649 357.904 309.649C331.176 310.539 316.917 293.008 308.601 269.83C308.008 268.644 307.415 267.448 307.118 266.261C306.525 265.371 306.525 265.371 306.525 266.261C310.085 283.792 314.247 301.926 324.64 316.482C324.937 317.075 324.937 317.372 324.343 317.075C322.563 316.185 321.377 314.998 319.893 314.108C304.745 304.003 296.132 289.735 294.639 271.61C294.343 271.314 294.343 271.314 294.046 271.314C294.046 271.314 293.749 271.314 293.749 271.61L292.859 273.696C292.563 274.883 292.266 274.883 291.969 273.4C290.486 258.242 291.673 243.084 295.242 227.935C298.505 215.744 301.769 204.155 299.989 190.786C299.989 190.193 299.989 189.896 300.582 189.896C325.233 190.193 347.511 183.36 367.713 169.686C385.828 157.504 400.68 140.566 406.92 120.068C413.15 98.6703 411.073 78.4596 400.087 59.7416C399.494 58.8516 399.494 58.8516 399.494 59.7416C399.79 61.225 400.384 62.4209 400.68 63.9043C411.37 105.8 390.881 147.408 353.157 167.312C349.292 169.389 345.138 171.475 340.975 173.255C339.789 173.552 339.789 173.552 340.382 172.662C341.569 171.475 343.061 170.288 344.248 169.092C364.144 150.968 380.479 124.824 386.422 98.6703C395.034 59.445 377.512 24.0856 345.731 1.20495C344.545 0.314941 344.841 0.314941 346.028 0.611611C362.364 5.3676 376.622 12.4969 388.498 22.6023C410.48 40.4303 425.035 62.1243 432.758 87.675C438.107 104.91 440.184 125.714 435.724 142.652C428.892 169.389 405.436 182.174 382.268 191.676C380.776 192.27 380.776 192.27 382.565 191.973C388.498 191.083 394.441 189.896 400.384 188.116C429.494 180.384 453.256 160.48 455.629 129.274C457.112 110.259 453.849 92.1343 446.126 75.7896C444.337 71.3303 441.37 67.4736 438.997 63.6076L439.294 63.3109C439.294 63.3109 439.294 63.3109 439.59 63.3109C442.854 66.871 445.83 70.4403 448.796 74.0096C475.821 106.393 489.487 156.91 454.739 189.6C440.777 202.968 421.772 209.504 402.164 210.098C382.862 210.7 362.067 210.997 339.492 210.7C337.415 210.7 337.415 210.997 339.492 211.59C357.904 215.744 377.216 219.016 397.111 221.093C424.145 224.069 455.036 220.5 474.635 199.112C475.228 198.509 475.228 198.509 474.931 199.408C463.352 226.146 443.447 245.763 412.556 245.763C401.57 245.763 389.388 243.677 375.732 240.117C362.364 236.548 348.995 232.978 336.229 229.418C335.339 229.418 335.042 229.418 335.932 230.012Z" fill="white"/>
</mask>
<g mask="url(#mask1_97_1923)">
<path d="M-0.00390625 0.314941V528.944H503.742V0.314941H-0.00390625Z" fill="url(#paint0_linear_97_1923)" fill-opacity="0.61"/>
</g>
</g>
<defs>
<linearGradient id="paint0_linear_97_1923" x1="175" y1="278" x2="-115" y2="704" gradientUnits="userSpaceOnUse">
<stop offset="0.04" stop-color="white"/>
<stop offset="0.150402" stop-color="white"/>
<stop offset="0.201955" stop-color="white"/>
<stop offset="0.32" stop-color="#EFEFEF"/>
<stop offset="1" stop-color="#949494"/>
</linearGradient>
</defs>
</svg>
