<svg width="303" height="321" viewBox="0 0 303 321" fill="none" xmlns="http://www.w3.org/2000/svg">
<mask id="mask0_169_3075" style="mask-type:luminance" maskUnits="userSpaceOnUse" x="0" y="0" width="303" height="321">
<path fill-rule="evenodd" clip-rule="evenodd" d="M141.272 200.134C141.092 199.594 141.092 199.594 140.912 199.954C138.746 208.612 135.14 216.543 130.274 223.755C124.148 232.773 114.957 239.084 109.731 248.816C106.485 254.948 105.045 261.08 105.765 267.391C105.945 268.111 105.765 268.291 105.405 267.571C102.524 263.245 101.079 258.374 100.899 252.968C100.359 242.33 103.965 233.493 111.351 226.281C113.876 223.935 116.582 221.415 120.002 218.709C125.589 214.198 129.374 208.432 131.54 201.76C131.72 201.22 131.54 201.22 131.36 201.58C124.688 208.612 116.217 211.857 106.125 211.497C105.405 211.497 105.405 211.317 106.125 211.137C113.336 208.612 119.282 204.466 124.148 198.514C131.18 189.677 132.62 178.139 127.034 168.401C126.134 166.601 125.048 164.976 123.968 163.175C123.608 162.635 123.428 162.815 123.428 163.355C124.148 176.159 116.582 186.071 105.765 192.202C105.765 192.382 105.765 192.382 105.765 192.382C105.585 192.382 105.585 192.202 105.585 192.202C111.716 183.191 114.056 173.633 116.397 162.635C116.582 162.455 116.397 162.455 116.397 162.455H116.217C116.217 162.455 116.217 162.455 116.037 162.455C114.957 165.516 113.336 169.127 110.991 173.093C105.405 183.011 96.9328 187.876 85.9408 187.696C85.0408 187.696 85.0408 187.516 85.7608 187.156C96.2128 181.565 102.344 170.927 106.845 160.47C107.21 159.75 107.03 159.75 106.665 160.29C102.884 164.796 98.9186 168.761 94.2326 172.547C85.9408 179.399 76.5689 181.565 65.937 179.039C72.423 176.159 78.3747 172.367 84.3207 167.681C89.5467 163.535 94.4126 158.849 99.2786 153.978C100.359 152.898 100.179 152.718 98.9186 153.438C92.9725 157.224 86.8409 160.65 80.3548 163.535C65.5769 170.207 50.7991 170.387 38.5414 158.669C37.6413 157.944 36.7412 157.224 36.2012 156.504C35.8412 156.144 35.8412 156.144 36.3812 156.324C44.853 159.75 54.2193 158.124 62.6911 155.058C74.7688 150.732 86.4809 145.506 97.8385 139.554C97.8385 139.374 97.8385 139.374 97.8385 139.374V139.194C97.8385 139.194 97.8385 139.194 97.6585 139.194C84.1407 143.16 73.3231 145.866 65.5769 147.666C59.8109 148.932 53.1392 149.472 47.0132 148.572C31.3352 146.586 20.8777 135.409 14.5716 120.805C14.5716 120.445 14.5716 120.445 14.7516 120.625C25.5636 132.343 42.3272 135.409 57.8252 134.323C70.2629 133.423 82.875 131.443 95.8527 128.197C95.8527 128.197 96.0328 128.017 95.8527 128.017V127.837H95.6727C84.6807 127.837 74.4088 127.657 65.0369 127.657C60.351 127.477 55.665 127.111 51.5191 126.571C39.8014 124.951 28.6294 118.819 21.6033 109.082C15.8317 100.79 13.4915 90.8724 14.9316 79.1547C16.7374 63.8256 25.2036 49.2221 36.2012 38.2245H36.3812L36.5612 38.4045C29.7095 47.0563 26.8293 59.3196 26.2893 70.6773C25.9293 76.2689 26.4693 81.4949 27.7294 86.1865C31.3352 98.9842 42.3272 108.182 54.4049 112.328C59.8109 113.953 65.5769 115.573 71.883 116.654L72.063 116.474C72.063 116.293 72.063 116.293 71.883 116.293C58.9052 111.788 45.033 103.496 39.8014 90.5124C38.0013 86.5465 37.2813 81.4949 37.1013 75.5489C36.3812 41.8303 59.9909 8.83185 92.9725 0C93.5126 0 93.6926 0 93.1526 0.360024C91.7068 1.62011 89.9067 2.5258 88.4666 3.78588C82.875 8.47182 78.189 13.8834 74.5888 20.0151C67.197 32.6328 65.2169 46.1562 68.6371 60.5797C72.423 77.169 82.695 92.4925 95.3127 104.216C96.0328 104.756 96.0328 104.936 95.1327 104.576C77.469 97.0041 64.4969 83.8407 59.6309 65.0913C57.1051 55.7138 57.2851 46.5163 59.9909 37.3244C60.351 35.5187 60.1709 35.5187 59.4509 37.1444C48.4533 57.1539 54.5849 80.7748 70.9829 95.9184C82.695 106.562 95.8527 112.688 110.271 114.313C113.696 114.853 117.122 115.033 120.723 115.213C121.083 115.213 121.268 115.393 121.083 115.573C117.842 133.063 123.248 148.206 134.96 161.01C143.252 169.667 149.558 176.879 154.064 187.876C156.59 193.828 157.31 199.954 158.75 206.266C160.916 216.003 163.976 224.115 167.762 230.787C170.648 235.838 174.254 241.244 178.214 246.836C182 251.882 184.526 257.834 185.606 264.325C187.946 279.109 180.92 291.372 168.662 300.024C168.302 300.384 168.302 300.204 168.482 299.844C169.028 298.764 169.568 297.498 169.928 296.418C174.074 283.615 172.988 271.537 166.502 259.999C162.896 253.868 160.556 249.362 159.29 246.656C155.33 238.359 152.804 229.347 152.084 219.789C151.904 216.903 151.544 213.838 151.184 210.957C151.184 210.772 151.184 210.772 151.004 210.772H150.824C150.644 215.823 150.104 220.869 149.378 225.921C148.118 234.393 145.418 242.51 141.092 249.902C138.386 254.588 136.046 259.094 134.06 263.065C129.194 273.157 128.114 283.8 131.36 294.978C131.72 296.598 132.44 298.224 133.52 299.844C134.06 300.564 133.88 300.744 133.16 300.204C120.723 291.552 114.236 278.569 116.582 263.785C117.662 257.474 120.183 251.702 124.328 246.116C129.734 239.084 133.88 232.233 136.766 225.921C140.552 217.623 141.992 208.972 141.272 200.134ZM165.062 320.579C152.264 317.153 143.972 307.056 141.452 294.438C139.826 285.961 139.826 278.029 141.812 270.277C143.972 261.8 147.938 253.688 150.644 245.756C150.824 245.21 151.184 245.21 151.364 245.756C153.344 251.342 155.51 256.754 157.49 261.98C161.456 271.537 162.536 280.915 160.736 290.107C158.57 301.104 158.39 310.662 165.422 320.039C165.782 320.579 165.602 320.759 165.062 320.579ZM175.154 200.68C174.434 199.414 173.894 198.154 173.348 197.074C173.168 196.168 173.348 195.988 173.894 196.708C179.84 203.02 187.226 207.892 196.058 211.137C196.598 211.317 196.598 211.497 196.058 211.497C186.866 212.037 179.84 208.432 175.154 200.68ZM163.796 188.056C166.322 200.86 173.168 212.578 183.806 220.329C190.652 225.201 196.598 231.147 199.483 239.264C202.909 248.996 202.004 258.194 196.958 267.211C196.598 268.111 196.238 268.111 196.418 267.031C197.138 256.394 192.452 246.476 185.066 238.904C181.64 235.478 178.76 232.233 175.874 228.807C166.862 217.989 162.536 205.006 163.076 189.857C163.076 189.317 163.256 188.597 163.436 188.056C163.616 187.516 163.616 187.516 163.796 188.056ZM216.422 287.766C206.33 292.452 195.698 296.058 184.526 298.584C183.986 298.764 183.986 298.584 184.346 298.224C189.572 292.272 193.177 285.781 195.158 278.569C195.158 278.389 195.338 278.209 195.518 278.029C195.878 277.849 196.238 277.489 196.598 277.489C218.407 269.011 237.151 256.214 252.469 239.084C256.075 234.933 259.135 230.967 262.021 226.821C279.145 201.4 286.351 172.913 283.465 141.36C283.285 140.815 283.465 140.274 283.83 139.914C290.317 131.083 294.282 121.525 295.903 111.068C296.083 109.982 296.263 109.982 296.623 111.068C298.968 119.719 300.588 128.917 301.489 138.294C305.094 176.339 295.903 210.412 273.733 240.884C259.135 261.08 238.411 277.489 216.422 287.766ZM117.842 298.764C87.2009 291.552 60.1709 276.583 38.9014 253.508C15.4717 228.081 1.77387 195.628 0.153759 161.55C-0.56629 144.6 1.23383 127.657 5.73976 110.707C5.91977 110.167 6.09979 110.167 6.09979 110.707C7.72552 119.359 10.6057 127.477 14.9316 134.688C16.1973 136.669 17.6374 138.294 18.7175 140.094C18.8975 140.455 18.8975 140.635 18.8975 140.995C12.7715 197.074 43.5873 248.096 93.6926 272.257C97.6585 274.063 101.799 275.863 106.125 277.669C106.665 277.849 107.03 278.209 107.03 278.749C109.011 286.141 112.616 292.632 118.022 298.404C118.202 298.764 118.202 298.764 117.842 298.764ZM161.636 108.362C154.064 119.719 151.724 132.163 157.13 145.146C158.57 148.392 160.016 151.818 161.816 155.244C164.882 161.73 166.502 168.041 166.502 174.173C166.502 175.613 166.322 175.613 165.962 174.353C164.702 168.761 159.476 162.635 155.33 159.39C148.298 153.438 141.812 148.392 138.926 139.374C138.566 138.114 138.386 136.849 138.026 135.769C137.666 135.049 137.666 135.049 137.486 135.769C137.126 143.7 138.926 150.372 142.892 156.144C143.432 156.684 143.252 156.864 142.712 156.324C133.34 150.372 129.014 141.54 129.734 130.177C130.274 121.165 134.06 113.953 139.106 106.742C143.072 100.97 144.152 93.2182 138.566 88.1666C136.946 86.7265 134.96 85.8264 132.44 85.2808C126.854 84.3807 121.988 85.6408 117.842 89.0667C117.482 89.2523 117.302 89.2523 117.302 88.8866C117.482 83.8407 119.102 78.7947 123.248 75.9089C124.508 75.0032 125.949 74.8232 127.034 74.1031C127.394 73.9231 127.574 73.7431 127.574 73.3831C129.374 68.6971 132.44 65.4513 136.946 64.0056C140.186 62.7455 144.152 61.4854 148.478 60.2197C156.23 57.8795 162.536 53.188 166.862 46.5163C168.122 44.7162 168.842 43.0904 169.388 41.2903C169.748 40.3846 169.928 40.3846 169.928 41.2903C170.828 49.5821 168.662 57.5139 160.916 61.8454C159.836 62.3855 160.016 62.5655 161.096 62.2055C169.928 59.8597 177.494 54.268 179.84 45.2562C180.02 44.7162 180.2 44.7162 180.2 45.2562C182 56.4338 177.314 68.5171 165.602 71.2173C165.062 71.3973 165.062 71.5773 165.602 71.7574C172.268 73.9231 178.034 73.5631 183.26 70.6773C183.986 70.3173 184.166 70.4973 183.806 71.3973C180.2 77.529 174.614 80.7748 166.682 81.4949C166.502 81.4949 166.502 81.6749 166.502 81.8549C174.254 90.6924 176.054 102.95 172.808 113.953C171.008 120.079 168.662 126.031 168.122 132.163C167.582 136.489 168.122 140.635 169.388 144.6C169.748 145.686 169.568 145.866 168.662 145.146C159.836 136.489 157.31 123.865 160.916 112.148C161.276 110.888 161.636 109.802 161.996 108.542C162.176 108.002 162.176 107.822 161.636 108.362ZM140.006 77.349C144.152 76.6289 145.418 73.7431 148.118 71.0373C148.478 70.6773 148.478 70.4973 147.938 70.4973C141.452 71.0373 136.586 71.943 131.72 76.989C131.54 77.169 131.72 77.349 131.9 77.349C134.78 77.709 137.486 77.709 140.006 77.349ZM225.433 46.1562C202.549 28.847 173.894 19.4694 145.238 21.0952C121.083 22.3553 96.2128 30.8327 77.109 45.9762C76.7489 46.1562 76.7489 46.1562 76.7489 45.7962C76.929 37.8644 78.9147 30.1127 82.695 22.8953C83.4206 21.8152 84.1407 20.9152 85.2208 20.3751C100.899 11.1776 119.102 6.13166 137.486 4.14591C164.882 1.26008 193.537 6.6717 217.867 20.7352C218.407 21.0952 218.767 21.4552 218.947 21.8152C223.273 29.207 225.433 37.3244 225.613 46.1562C225.613 46.3363 225.433 46.3363 225.433 46.1562ZM203.269 139.374C204.709 140.094 205.97 140.815 207.415 141.54C218.047 146.586 228.859 151.092 239.851 155.058C248.503 158.124 256.975 159.75 265.627 156.504C266.347 156.324 266.347 156.324 265.987 156.864C256.075 166.601 244.897 170.027 232.285 167.321C228.319 166.421 223.453 164.616 217.867 161.73C212.281 159.03 207.235 156.144 202.549 153.258C202.184 152.898 202.184 152.898 202.549 153.438C209.575 161.01 217.507 167.861 226.519 173.813C229.399 175.793 232.465 177.239 235.705 178.499C236.431 178.859 236.431 179.039 235.705 179.039C224.893 181.385 215.881 179.585 207.415 172.187C202.909 168.401 198.943 164.255 195.518 159.93C194.978 159.21 194.798 159.21 195.158 160.11C199.844 171.107 205.61 181.565 216.787 187.336C217.147 187.516 217.147 187.696 216.602 187.696C200.384 188.236 191.732 177.599 186.686 163.535C186.326 162.815 185.966 162.09 185.786 161.37C185.426 160.83 185.426 160.83 185.426 161.37C187.586 172.007 190.112 183.011 196.418 191.842C196.598 192.202 196.598 192.382 196.238 192.202C195.158 191.662 194.438 190.942 193.537 190.402C184.346 184.271 179.12 175.613 178.214 164.616C178.034 164.436 178.034 164.436 177.854 164.436C177.854 164.436 177.674 164.436 177.674 164.616L177.134 165.881C176.954 166.601 176.774 166.601 176.594 165.701C175.694 156.504 176.414 147.306 178.58 138.114C180.56 130.717 182.54 123.685 181.46 115.573C181.46 115.213 181.46 115.033 181.82 115.033C196.778 115.213 210.295 111.068 222.553 102.77C233.545 95.3783 242.557 85.1008 246.343 72.663C250.123 59.6797 248.863 47.4163 242.197 36.0587C241.837 35.5187 241.837 35.5187 241.837 36.0587C242.017 36.9588 242.377 37.6844 242.557 38.5845C249.043 64.0056 236.611 89.2523 213.721 101.33C211.376 102.59 208.855 103.856 206.33 104.936C205.61 105.116 205.61 105.116 205.97 104.576C206.69 103.856 207.595 103.136 208.315 102.41C220.387 91.4124 230.299 75.5489 233.905 59.6797C239.131 35.8787 228.499 14.4235 209.215 0.540037C208.495 0 208.675 0 209.395 0.180012C219.307 3.06583 227.959 7.39175 235.165 13.5234C248.503 24.341 257.335 37.5044 262.021 53.008C265.267 63.4655 266.527 76.0889 263.821 86.3665C259.675 102.59 245.443 110.347 231.385 116.113C230.479 116.474 230.479 116.474 231.565 116.293C235.165 115.753 238.771 115.033 242.377 113.953C260.041 109.262 274.459 97.1841 275.899 78.249C276.799 66.7114 274.819 55.7138 270.133 45.7962C269.047 43.0904 267.247 40.7503 265.807 38.4045L265.987 38.2245C265.987 38.2245 265.987 38.2245 266.167 38.2245C268.147 40.3846 269.953 42.5504 271.753 44.7162C288.151 64.3656 296.443 95.0183 275.359 114.853C266.887 122.965 255.355 126.931 243.457 127.291C231.745 127.657 219.127 127.837 205.43 127.657C204.169 127.657 204.169 127.837 205.43 128.197C216.602 130.717 228.319 132.703 240.391 133.963C256.795 135.769 275.539 133.603 287.431 120.625C287.791 120.259 287.791 120.259 287.611 120.805C280.585 137.029 268.507 148.932 249.763 148.932C243.097 148.932 235.705 147.666 227.419 145.506C219.307 143.34 211.196 141.175 203.449 139.014C202.909 139.014 202.729 139.014 203.269 139.374Z" fill="white"/>
</mask>
<g mask="url(#mask0_169_3075)">
<path d="M-0.568604 0V320.759H305.092V0H-0.568604Z" fill="url(#paint0_linear_169_3075)" fill-opacity="0.61"/>
</g>
<defs>
<linearGradient id="paint0_linear_169_3075" x1="105.62" y1="168.493" x2="-70.3454" y2="426.979" gradientUnits="userSpaceOnUse">
<stop offset="0.04" stop-color="white"/>
<stop offset="0.150402" stop-color="white"/>
<stop offset="0.201955" stop-color="white"/>
<stop offset="0.32" stop-color="#EFEFEF"/>
<stop offset="1" stop-color="#949494"/>
</linearGradient>
</defs>
</svg>
