<svg width="24" height="24" viewBox="0 0 24 24" fill="none" xmlns="http://www.w3.org/2000/svg">
<path fill-rule="evenodd" clip-rule="evenodd" d="M12.0015 23.9933C11.9408 23.9933 11.8834 23.9764 11.826 23.9562L1.738 18.1241C1.64013 18.0667 1.5625 17.9486 1.5625 17.8338V6.17304C1.5625 6.05491 1.61988 5.94016 1.738 5.87941L6.77021 2.96336L11.826 0.0506902C11.9239 -0.0100608 12.0589 -0.0100608 12.1568 0.0506902L17.2092 2.96336L22.2617 5.87941C22.3596 5.94016 22.4372 6.05491 22.4372 6.17304V17.8338C22.4372 17.9486 22.3798 18.0667 22.2617 18.1241L17.2092 21.0401L12.1568 23.9562C12.1163 23.9764 12.0589 23.9933 12.0015 23.9933ZM2.26114 17.6212L12.0184 23.2576L16.8987 20.4394L21.7757 17.6212V6.36541L16.8785 3.52699L12.0015 0.729076L7.12121 3.52699L2.26114 6.34516V17.6212Z" fill="#F0F0F0"/>
<path fill-rule="evenodd" clip-rule="evenodd" d="M7.14169 19.1939C7.08431 19.1939 7.02356 19.1737 6.96619 19.1534L3.25363 17.017C3.15575 16.9596 3.07812 16.8415 3.07812 16.7268V12.2548C3.07812 12.0624 3.23338 11.9038 3.42913 11.9038C3.62488 11.9038 3.78014 12.0624 3.78014 12.2548V16.5108L7.31719 18.5324C7.47244 18.6303 7.52982 18.826 7.43194 18.9982C7.35432 19.1365 7.25644 19.1939 7.14169 19.1939Z" fill="#F0F0F0"/>
<path fill-rule="evenodd" clip-rule="evenodd" d="M11.826 12.2346L8.61969 10.3851V14.2968C8.61969 14.6006 8.33281 14.6681 8.09318 14.5871L5.78127 13.2674C5.68339 13.2067 5.62601 13.0919 5.62601 12.9738V8.65371L1.79533 6.42618C1.64008 6.3283 1.5827 6.1123 1.68058 5.95704C1.77508 5.80179 1.99108 5.74441 2.14634 5.84229L5.97027 8.06645L15.4609 2.14998C15.5554 2.08923 15.6938 2.07236 15.8085 2.14998L18.0833 3.46963C18.1812 3.527 18.2588 3.64513 18.2588 3.76326C18.2588 3.87801 18.2015 3.99614 18.1036 4.05351L8.92344 9.7776L12.0015 11.5563L16.8784 8.73809L21.8735 5.84229C22.0288 5.74441 22.2414 5.80179 22.3393 5.95704C22.4372 6.1123 22.3798 6.3283 22.2245 6.42618L17.2294 9.32197L12.1736 12.2346C12.0217 12.2886 11.9779 12.2886 11.826 12.2346ZM6.65878 8.44446L8.24843 9.3591L17.2463 3.74301L15.6533 2.80812L6.65878 8.44446ZM7.93793 9.99361L6.3044 9.04859V12.7611L7.93793 13.6927V9.99361Z" fill="#F0F0F0"/>
<path fill-rule="evenodd" clip-rule="evenodd" d="M12.0014 23.9932C11.8056 23.9932 11.6504 23.838 11.6504 23.6456V11.9848C11.6504 11.789 11.8056 11.6338 12.0014 11.6338C12.1938 11.6338 12.349 11.789 12.349 11.9848V23.6456C12.349 23.838 12.1938 23.9932 12.0014 23.9932Z" fill="#F0F0F0"/>
<path fill-rule="evenodd" clip-rule="evenodd" d="M16.3151 19.7778C16.1969 19.7778 16.0822 19.717 16.0248 19.6023C15.9269 19.447 15.9843 19.2344 16.1396 19.1365L20.2605 16.7639V11.9848C20.2605 11.789 20.4158 11.6338 20.6115 11.6338C20.8039 11.6338 20.9591 11.789 20.9591 11.9848V16.9596C20.9591 17.0744 20.9018 17.1925 20.7836 17.2499L16.4906 19.7373C16.4332 19.7575 16.3724 19.7778 16.3151 19.7778Z" fill="#F0F0F0"/>
<path fill-rule="evenodd" clip-rule="evenodd" d="M7.6847 4.82981C7.56995 4.82981 7.45182 4.77244 7.39445 4.65431C7.29657 4.49906 7.35394 4.28643 7.5092 4.18855L11.8259 1.68089C11.9811 1.58639 12.1938 1.64376 12.2916 1.79902C12.3895 1.95427 12.3288 2.1669 12.1735 2.26477L7.83995 4.77244C7.80283 4.81294 7.74208 4.82981 7.6847 4.82981Z" fill="#F0F0F0"/>
</svg>
