<svg width="80" height="80" viewBox="0 0 80 80" fill="none" xmlns="http://www.w3.org/2000/svg">
<g clip-path="url(#clip0_122_513)">
<path d="M40 0C62.125 0 80 17.875 80 40C80 62.125 62.125 80 40 80C17.875 80 0 62.125 0 40C0 17.875 17.875 0 40 0Z" fill="#375665"/>
<path d="M18.75 23.75V43.625C18.75 56.875 40 65 40 65C40 65 61.25 56.875 61.25 43.625V22.5C54.375 22.5 44.25 18.625 40 13.75C35 18.75 25.625 23.75 18.75 23.75Z" fill="#0FBAEF"/>
<path d="M40 13.75V65C40 65 61.25 56.875 61.25 43.625V22.5C54.375 22.5 44.25 18.625 40 13.75Z" fill="#0FBAEF"/>
<path d="M36.375 50.25L27 41L30.5 37.375L36.125 43.125L50.625 27.5L54.375 30.875L36.375 50.25Z" fill="white"/>
</g>
<defs>
<clipPath id="clip0_122_513">
<rect width="80" height="80" fill="white"/>
</clipPath>
</defs>
</svg>
