<svg width="24" height="24" viewBox="0 0 24 24" fill="none" xmlns="http://www.w3.org/2000/svg">
<g clip-path="url(#clip0_170_3474)">
<path d="M3.8693 3.86812L3.86919 3.86823C1.71252 6.025 0.500644 8.94995 0.5 12L3.8693 3.86812ZM3.8693 3.86812C6.02357 1.71241 8.95068 0.5 12 0.5C15.0493 0.5 17.9764 1.71241 20.1307 3.86812L20.1309 3.86827C22.2871 6.02415 23.5 8.95135 23.5 12C23.5 15.0486 22.2871 17.9758 20.1309 20.1317L20.1307 20.1319C17.9764 22.2876 15.0493 23.5 12 23.5C8.95068 23.5 6.02357 22.2876 3.8693 20.1319L3.86915 20.1317M3.8693 3.86812L3.86915 20.1317M3.86915 20.1317C1.71293 17.9759 0.500027 15.0487 0.5 12.0001L3.86915 20.1317Z" stroke="#F0F0F0"/>
<path d="M5.43184 11.8733C8.93059 10.3493 11.2631 9.34454 12.4293 8.85904C15.7631 7.47285 16.455 7.2321 16.9068 7.22395C17.0062 7.22235 17.2275 7.24692 17.3718 7.36364C17.4918 7.46207 17.5256 7.5952 17.5425 7.68867C17.5575 7.78204 17.5781 7.99485 17.5612 8.16098C17.3812 10.0585 16.5993 14.6631 16.2018 16.7884C16.035 17.6877 15.7031 17.9892 15.3825 18.0186C14.685 18.0827 14.1562 17.5581 13.4812 17.1158C12.4256 16.4234 11.8293 15.9925 10.8037 15.3169C9.61872 14.5362 10.3875 14.107 11.0625 13.4057C11.2387 13.2222 14.31 10.4294 14.3681 10.176C14.3756 10.1444 14.3831 10.0262 14.3118 9.96398C14.2425 9.90154 14.1393 9.92292 14.0643 9.93979C13.9575 9.96379 12.2718 11.079 9.00184 13.2854C8.52372 13.6142 8.09059 13.7745 7.70059 13.7661C7.27309 13.7569 6.44809 13.5239 5.83497 13.3247C5.08497 13.0804 4.48684 12.9512 4.53934 12.5363C4.56559 12.3203 4.86372 12.0992 5.43184 11.8733Z" fill="#F0F0F0"/>
</g>
<defs>
<clipPath id="clip0_170_3474">
<rect width="24" height="24" fill="white"/>
</clipPath>
</defs>
</svg>
