<svg width="20" height="20" viewBox="0 0 20 20" fill="none" xmlns="http://www.w3.org/2000/svg">
<path d="M20 10C20 15.5228 15.5228 20 10 20C4.47715 20 0 15.5228 0 10C0 4.47715 4.47715 0 10 0C15.5228 0 20 4.47715 20 10ZM10.3584 7.3825C9.38577 7.78704 7.44185 8.62438 4.52662 9.89446C4.05323 10.0827 3.80527 10.2669 3.78269 10.447C3.74454 10.7513 4.12565 10.8711 4.64462 11.0343C4.71519 11.0565 4.78835 11.0795 4.86335 11.1039C5.37392 11.2698 6.06073 11.464 6.41781 11.4717C6.74165 11.4787 7.10315 11.3452 7.50227 11.0712C10.226 9.23254 11.632 8.30323 11.7203 8.28319C11.7826 8.26904 11.8689 8.25127 11.9273 8.30323C11.9858 8.35523 11.9801 8.45365 11.9739 8.48004C11.9361 8.641 10.4402 10.0318 9.666 10.7515C9.42465 10.9759 9.25346 11.135 9.21846 11.1714C9.14004 11.2528 9.06015 11.3298 8.98339 11.4039C8.50904 11.8612 8.15331 12.204 9.00308 12.764C9.41142 13.0331 9.73819 13.2557 10.0642 13.4777C10.4202 13.7201 10.7753 13.9619 11.2347 14.2631C11.3518 14.3398 11.4636 14.4195 11.5725 14.4971C11.9868 14.7925 12.359 15.0579 12.8189 15.0155C13.0861 14.991 13.3621 14.7397 13.5023 13.9903C13.8336 12.2193 14.4847 8.38208 14.6352 6.80085C14.6484 6.66231 14.6318 6.48504 14.6185 6.40719C14.6052 6.32935 14.5773 6.21846 14.4762 6.13638C14.3564 6.03915 14.1714 6.01865 14.0887 6.02012C13.7126 6.02673 13.1355 6.22738 10.3584 7.3825Z" fill="#24A1DE"/>
</svg>
