<svg width="24" height="26" viewBox="0 0 24 26" fill="none" xmlns="http://www.w3.org/2000/svg">
<mask id="mask0_168_2805" style="mask-type:luminance" maskUnits="userSpaceOnUse" x="0" y="0" width="24" height="26">
<path d="M0 0H24V25.4044H0V0Z" fill="white"/>
</mask>
<g mask="url(#mask0_168_2805)">
<mask id="mask1_168_2805" style="mask-type:luminance" maskUnits="userSpaceOnUse" x="0" y="0" width="24" height="26">
<path fill-rule="evenodd" clip-rule="evenodd" d="M11.2205 15.8471C11.2062 15.8044 11.2062 15.8044 11.192 15.8328C11.0207 16.5177 10.7354 17.1452 10.3505 17.7156C9.86588 18.429 9.13874 18.9283 8.72533 19.6981C8.46857 20.1832 8.35465 20.6683 8.41161 21.1675C8.42585 21.2245 8.41161 21.2387 8.38313 21.1818C8.15528 20.8396 8.04092 20.4542 8.02668 20.0266C7.98396 19.1851 8.2692 18.486 8.8535 17.9155C9.0533 17.7299 9.26735 17.5305 9.53791 17.3165C9.9798 16.9596 10.2793 16.5035 10.4506 15.9757C10.4649 15.933 10.4506 15.933 10.4364 15.9614C9.9086 16.5177 9.23843 16.7745 8.44009 16.746C8.38313 16.746 8.38313 16.7317 8.44009 16.7175C9.01058 16.5177 9.48095 16.1897 9.86588 15.7189C10.4221 15.0198 10.5361 14.1071 10.0942 13.3368C10.023 13.1944 9.93708 13.0658 9.85164 12.9234C9.82316 12.8807 9.80892 12.8949 9.80892 12.9376C9.86588 13.9505 9.26735 14.7346 8.41161 15.2196C8.41161 15.2339 8.41161 15.2339 8.41161 15.2339C8.39737 15.2339 8.39737 15.2196 8.39737 15.2196C8.88242 14.5067 9.06754 13.7507 9.25267 12.8807C9.26735 12.8664 9.25267 12.8664 9.25267 12.8664H9.23842C9.23842 12.8664 9.23842 12.8664 9.22418 12.8664C9.13874 13.1085 9.01058 13.3942 8.82502 13.7079C8.38313 14.4925 7.71295 14.8774 6.84341 14.8632C6.77221 14.8632 6.77221 14.8489 6.82917 14.8204C7.65599 14.3781 8.14104 13.5366 8.49705 12.7093C8.52597 12.6524 8.51173 12.6524 8.48281 12.6951C8.18376 13.0516 7.87004 13.3653 7.49935 13.6648C6.84341 14.2068 6.10203 14.3781 5.26097 14.1783C5.77406 13.9505 6.24488 13.6505 6.71525 13.2798C7.12866 12.9519 7.51359 12.5812 7.89852 12.1958C7.98396 12.1104 7.96972 12.0961 7.87004 12.1531C7.39967 12.4526 6.91461 12.7236 6.40152 12.9519C5.23249 13.4796 4.06346 13.4939 3.0938 12.5669C3.0226 12.5095 2.9514 12.4526 2.90868 12.3956C2.8802 12.3671 2.8802 12.3671 2.92292 12.3814C3.59309 12.6524 4.33403 12.5238 5.0042 12.2812C5.95963 11.939 6.88613 11.5256 7.78459 11.0548C7.78459 11.0406 7.78459 11.0406 7.78459 11.0406V11.0263C7.78459 11.0263 7.78459 11.0263 7.77035 11.0263C6.70101 11.3401 5.84526 11.5541 5.23249 11.6965C4.77636 11.7966 4.24859 11.8394 3.76398 11.7682C2.52375 11.6111 1.69648 10.7268 1.19763 9.57161C1.19763 9.54313 1.19763 9.54313 1.21187 9.55737C2.06717 10.4843 3.39329 10.7268 4.61927 10.641C5.60318 10.5698 6.60088 10.4131 7.62751 10.1564C7.62751 10.1564 7.64175 10.1421 7.62751 10.1421V10.1279H7.61327C6.74373 10.1279 5.93115 10.1136 5.18977 10.1136C4.81908 10.0994 4.44839 10.0705 4.12042 10.0277C3.19348 9.89958 2.3097 9.41453 1.75389 8.64422C1.29731 7.98829 1.11219 7.20374 1.22611 6.2768C1.36896 5.06416 2.03869 3.90893 2.90868 3.03894H2.92292L2.93716 3.05318C2.39514 3.7376 2.1673 4.70771 2.12458 5.60618C2.0961 6.04851 2.13882 6.46192 2.2385 6.83306C2.52375 7.84544 3.39329 8.57302 4.34871 8.90099C4.77636 9.0296 5.23249 9.15776 5.73134 9.2432L5.74558 9.22896C5.74558 9.21472 5.74558 9.21472 5.73134 9.21472C4.70472 8.85827 3.60733 8.20233 3.19348 7.17526C3.05108 6.86154 2.99412 6.46192 2.97988 5.99155C2.92292 3.32419 4.7906 0.713794 7.39967 0.0151367C7.44239 0.0151367 7.45663 0.0151367 7.41391 0.043617C7.29954 0.143298 7.15714 0.214944 7.04322 0.314625C6.60088 0.685314 6.23019 1.11341 5.94539 1.59846C5.36065 2.59661 5.20401 3.6664 5.47457 4.80739C5.77406 6.11971 6.58664 7.33191 7.58479 8.2593C7.64175 8.30202 7.64175 8.31626 7.57055 8.28778C6.17323 7.6888 5.14705 6.64749 4.76212 5.16429C4.56231 4.42246 4.57655 3.69488 4.7906 2.96774C4.81908 2.8249 4.80484 2.8249 4.74788 2.9535C3.8779 4.53639 4.36295 6.40496 5.66014 7.60291C6.58664 8.44486 7.62751 8.92947 8.76805 9.05808C9.03906 9.1008 9.31007 9.11504 9.59487 9.12928C9.62335 9.12928 9.63804 9.14352 9.62335 9.15776C9.36703 10.5413 9.79468 11.7392 10.7212 12.7521C11.3771 13.4369 11.876 14.0074 12.2324 14.8774C12.4322 15.3482 12.4892 15.8328 12.6031 16.3321C12.7744 17.1024 13.0165 17.7441 13.316 18.2719C13.5443 18.6715 13.8295 19.0992 14.1428 19.5415C14.4423 19.9407 14.6421 20.4115 14.7276 20.925C14.9127 22.0945 14.3569 23.0646 13.3872 23.749C13.3587 23.7775 13.3587 23.7633 13.373 23.7348C13.4161 23.6493 13.4589 23.5492 13.4873 23.4638C13.8153 22.4509 13.7294 21.4955 13.2163 20.5828C12.9311 20.0978 12.746 19.7413 12.6458 19.5273C12.3325 18.8709 12.1327 18.158 12.0758 17.4019C12.0615 17.1736 12.0331 16.9311 12.0046 16.7033C12.0046 16.6886 12.0046 16.6886 11.9903 16.6886H11.9761C11.9619 17.0882 11.9191 17.4874 11.8617 17.887C11.762 18.5572 11.5484 19.1993 11.2062 19.784C10.9922 20.1547 10.8071 20.5112 10.65 20.8253C10.2651 21.6237 10.1796 22.4656 10.4364 23.3499C10.4649 23.478 10.5218 23.6066 10.6073 23.7348C10.65 23.7917 10.6357 23.806 10.5788 23.7633C9.59487 23.0788 9.08178 22.0518 9.26735 20.8823C9.35279 20.383 9.55215 19.9264 9.88012 19.4845C10.3078 18.9283 10.6357 18.3863 10.864 17.887C11.1635 17.2306 11.2774 16.5462 11.2205 15.8471ZM13.1024 25.3751C12.09 25.1041 11.4341 24.3053 11.2347 23.3071C11.1061 22.6365 11.1061 22.0091 11.2632 21.3958C11.4341 20.7252 11.7478 20.0835 11.9619 19.4561C11.9761 19.4129 12.0046 19.4129 12.0188 19.4561C12.1755 19.898 12.3468 20.326 12.5034 20.7395C12.8172 21.4955 12.9026 22.2373 12.7602 22.9645C12.5889 23.8345 12.5746 24.5905 13.1309 25.3323C13.1594 25.3751 13.1451 25.3893 13.1024 25.3751ZM13.9007 15.8902C13.8438 15.7901 13.8011 15.6904 13.7579 15.605C13.7437 15.5333 13.7579 15.5191 13.8011 15.5761C14.2714 16.0754 14.8557 16.4607 15.5544 16.7175C15.5971 16.7317 15.5971 16.746 15.5544 16.746C14.8272 16.7887 14.2714 16.5035 13.9007 15.8902ZM13.0023 14.8916C13.2021 15.9045 13.7437 16.8314 14.5852 17.4446C15.1267 17.83 15.5971 18.3004 15.8254 18.9425C16.0964 19.7124 16.0247 20.44 15.6256 21.1533C15.5971 21.2245 15.5686 21.2245 15.5829 21.1391C15.6398 20.2976 15.2691 19.513 14.6848 18.914C14.4138 18.643 14.186 18.3863 13.9577 18.1153C13.2448 17.2595 12.9026 16.2324 12.9453 15.034C12.9453 14.9913 12.9596 14.9344 12.9738 14.8916C12.988 14.8489 12.988 14.8489 13.0023 14.8916ZM17.1653 22.7794C16.367 23.15 15.5259 23.4353 14.6421 23.6351C14.5994 23.6493 14.5994 23.6351 14.6279 23.6066C15.0413 23.1358 15.3265 22.6223 15.4832 22.0518C15.4832 22.0375 15.4974 22.0233 15.5117 22.0091C15.5401 21.9948 15.5686 21.9663 15.5971 21.9663C17.3224 21.2957 18.8051 20.2833 20.0169 18.9283C20.3021 18.5999 20.5442 18.2861 20.7725 17.9582C22.1271 15.9472 22.6971 13.6937 22.4689 11.1977C22.4546 11.1545 22.4689 11.1118 22.4978 11.0833C23.0109 10.3846 23.3246 9.62858 23.4528 8.80131C23.467 8.71543 23.4812 8.71543 23.5097 8.80131C23.6953 9.48573 23.8235 10.2133 23.8947 10.9551C24.1799 13.9647 23.4528 16.6601 21.699 19.0707C20.5442 20.6683 18.9048 21.9663 17.1653 22.7794ZM9.36703 23.6493C6.94309 23.0788 4.80484 21.8947 3.12228 20.0693C1.26883 18.0579 0.185247 15.4906 0.0570852 12.7948C0.000124624 11.454 0.142526 10.1136 0.498975 8.77283C0.513215 8.73011 0.527455 8.73011 0.527455 8.77283C0.656062 9.45725 0.883904 10.0994 1.22611 10.6699C1.32624 10.8265 1.44016 10.9551 1.5256 11.0975C1.53984 11.126 1.53984 11.1403 1.53984 11.1687C1.05523 15.605 3.49297 19.6412 7.45663 21.5525C7.77035 21.6953 8.09788 21.8377 8.44009 21.9806C8.48281 21.9948 8.51173 22.0233 8.51173 22.066C8.66837 22.6508 8.95362 23.1643 9.38127 23.6209C9.39551 23.6493 9.39551 23.6493 9.36703 23.6493ZM12.8314 8.58726C12.2324 9.48573 12.0473 10.4701 12.4749 11.4972C12.5889 11.7539 12.7032 12.0249 12.8456 12.2959C13.0882 12.809 13.2163 13.3083 13.2163 13.7934C13.2163 13.9073 13.2021 13.9073 13.1736 13.8076C13.0739 13.3653 12.6605 12.8807 12.3325 12.6239C11.7763 12.1531 11.2632 11.7539 11.0349 11.0406C11.0064 10.9409 10.9922 10.8408 10.9637 10.7553C10.9352 10.6984 10.9352 10.6984 10.921 10.7553C10.8925 11.3828 11.0349 11.9106 11.3486 12.3671C11.3914 12.4099 11.3771 12.4241 11.3344 12.3814C10.593 11.9106 10.2508 11.2119 10.3078 10.313C10.3505 9.60009 10.65 9.0296 11.0491 8.4591C11.3629 8.00253 11.4483 7.38931 11.0064 6.9897C10.8783 6.87578 10.7212 6.80457 10.5218 6.76141C10.0799 6.69021 9.695 6.78989 9.36703 7.0609C9.33855 7.07558 9.32431 7.07558 9.32431 7.04666C9.33855 6.64749 9.46671 6.24832 9.79468 6.02003C9.89436 5.94839 10.0083 5.93415 10.0942 5.87718C10.1226 5.86294 10.1369 5.8487 10.1369 5.82022C10.2793 5.44954 10.5218 5.19277 10.8783 5.0784C11.1346 4.97872 11.4483 4.87904 11.7905 4.77891C12.4037 4.59379 12.9026 4.22266 13.2448 3.69488C13.3445 3.55248 13.4014 3.42387 13.4446 3.28147C13.4731 3.20983 13.4873 3.20983 13.4873 3.28147C13.5585 3.93741 13.3872 4.56487 12.7744 4.90752C12.689 4.95024 12.7032 4.96448 12.7887 4.936C13.4873 4.75043 14.0859 4.3081 14.2714 3.5952C14.2857 3.55248 14.2999 3.55248 14.2999 3.5952C14.4423 4.47942 14.0716 5.4353 13.1451 5.6489C13.1024 5.66314 13.1024 5.67738 13.1451 5.69162C13.6725 5.86294 14.1286 5.83446 14.542 5.60618C14.5994 5.5777 14.6136 5.59194 14.5852 5.66314C14.2999 6.14819 13.858 6.40496 13.2306 6.46192C13.2163 6.46192 13.2163 6.47616 13.2163 6.4904C13.8295 7.1895 13.9719 8.15917 13.7152 9.0296C13.5728 9.51421 13.3872 9.98502 13.3445 10.4701C13.3018 10.8123 13.3445 11.1403 13.4446 11.454C13.4731 11.5399 13.4589 11.5541 13.3872 11.4972C12.689 10.8123 12.4892 9.8137 12.7744 8.88675C12.8029 8.78707 12.8314 8.70119 12.8599 8.6015C12.8741 8.55878 12.8741 8.54454 12.8314 8.58726ZM11.1204 6.13395C11.4483 6.07699 11.5484 5.8487 11.762 5.63466C11.7905 5.60618 11.7905 5.59194 11.7478 5.59194C11.2347 5.63466 10.8498 5.7063 10.4649 6.10547C10.4506 6.11971 10.4649 6.13395 10.4791 6.13395C10.7069 6.16243 10.921 6.16243 11.1204 6.13395ZM17.8782 3.6664C16.0679 2.29712 13.8011 1.5553 11.5342 1.6839C9.62335 1.78359 7.65599 2.45421 6.14475 3.65216C6.11627 3.6664 6.11627 3.6664 6.11627 3.63792C6.13051 3.01046 6.2876 2.39725 6.58664 1.82631C6.64405 1.74087 6.70101 1.66966 6.78645 1.62694C8.02668 0.899361 9.46671 0.500192 10.921 0.343105C13.0882 0.114818 15.355 0.542912 17.2797 1.65542C17.3224 1.6839 17.3509 1.71238 17.3651 1.74087C17.7073 2.3256 17.8782 2.96774 17.8924 3.6664C17.8924 3.68064 17.8782 3.68064 17.8782 3.6664ZM16.1249 11.0406C16.2388 11.0975 16.3385 11.1545 16.4528 11.2119C17.2939 11.6111 18.1492 11.9675 19.0187 12.2812C19.7032 12.5238 20.3733 12.6524 21.0578 12.3956C21.1147 12.3814 21.1147 12.3814 21.0862 12.4241C20.3021 13.1944 19.4179 13.4654 18.4202 13.2514C18.1065 13.1802 17.7216 13.0373 17.2797 12.809C16.8378 12.5954 16.4386 12.3671 16.0679 12.1388C16.039 12.1104 16.039 12.1104 16.0679 12.1531C16.6237 12.7521 17.2512 13.2941 17.9641 13.7649C18.1919 13.9215 18.4344 14.0359 18.6908 14.1356C18.7482 14.1641 18.7482 14.1783 18.6908 14.1783C17.8355 14.3639 17.1226 14.2215 16.4528 13.6363C16.0964 13.3368 15.7827 13.0088 15.5117 12.6666C15.4689 12.6097 15.4547 12.6097 15.4832 12.6809C15.8539 13.5508 16.31 14.3781 17.1942 14.8347C17.2227 14.8489 17.2227 14.8632 17.1795 14.8632C15.8966 14.9059 15.2122 14.0644 14.813 12.9519C14.7845 12.8949 14.756 12.8375 14.7418 12.7805C14.7133 12.7378 14.7133 12.7378 14.7133 12.7805C14.8842 13.622 15.084 14.4925 15.5829 15.1911C15.5971 15.2196 15.5971 15.2339 15.5686 15.2196C15.4832 15.1769 15.4262 15.1199 15.355 15.0772C14.6279 14.5922 14.2145 13.9073 14.1428 13.0373C14.1286 13.0231 14.1286 13.0231 14.1143 13.0231C14.1143 13.0231 14.1001 13.0231 14.1001 13.0373L14.0574 13.1374C14.0431 13.1944 14.0289 13.1944 14.0147 13.1232C13.9435 12.3956 14.0004 11.668 14.1717 10.9409C14.3284 10.3557 14.485 9.79946 14.3996 9.15776C14.3996 9.12928 14.3996 9.11504 14.4281 9.11504C15.6113 9.12928 16.6807 8.80131 17.6504 8.14493C18.5199 7.56019 19.2328 6.74717 19.5323 5.76326C19.8313 4.73619 19.7316 3.76608 19.2043 2.86762C19.1758 2.8249 19.1758 2.8249 19.1758 2.86762C19.1901 2.93882 19.2185 2.99622 19.2328 3.06742C19.7459 5.0784 18.7624 7.07558 16.9517 8.03101C16.7661 8.13069 16.5668 8.23082 16.367 8.31626C16.31 8.3305 16.31 8.3305 16.3385 8.28778C16.3954 8.23082 16.4671 8.17385 16.524 8.11645C17.479 7.24646 18.2631 5.99155 18.5484 4.73619C18.9618 2.85338 18.1207 1.15613 16.5952 0.0578572C16.5383 0.0151367 16.5525 0.0151367 16.6095 0.0293769C17.3936 0.257664 18.078 0.599873 18.6481 1.08493C19.7032 1.94067 20.4018 2.98198 20.7725 4.20842C21.0293 5.03568 21.129 6.03427 20.9149 6.8473C20.5869 8.13069 19.4611 8.74435 18.349 9.20048C18.2774 9.22896 18.2774 9.22896 18.3632 9.21472C18.6481 9.172 18.9333 9.11504 19.2185 9.0296C20.6159 8.65846 21.7564 7.70304 21.8703 6.20515C21.9415 5.29245 21.7849 4.42246 21.4142 3.63792C21.3283 3.42387 21.1859 3.23875 21.072 3.05318L21.0862 3.03894C21.0862 3.03894 21.0862 3.03894 21.1005 3.03894C21.2571 3.20983 21.4 3.38115 21.5424 3.55248C22.8396 5.10688 23.4955 7.53171 21.8276 9.1008C21.1574 9.7425 20.2452 10.0562 19.304 10.0847C18.3775 10.1136 17.3793 10.1279 16.2958 10.1136C16.1961 10.1136 16.1961 10.1279 16.2958 10.1564C17.1795 10.3557 18.1065 10.5128 19.0615 10.6125C20.3591 10.7553 21.8419 10.584 22.7826 9.55737C22.8111 9.52845 22.8111 9.52845 22.7968 9.57161C22.241 10.855 21.2856 11.7966 19.8028 11.7966C19.2755 11.7966 18.6908 11.6965 18.0353 11.5256C17.3936 11.3543 16.7519 11.183 16.1391 11.0121C16.0964 11.0121 16.0822 11.0121 16.1249 11.0406Z" fill="white"/>
</mask>
<g mask="url(#mask1_168_2805)">
<path d="M0 0.0151367V25.3893H24.1798V0.0151367H0Z" fill="#BCC6CC"/>
</g>
</g>
</svg>
