<svg width="31" height="32" viewBox="0 0 31 32" fill="none" xmlns="http://www.w3.org/2000/svg">
<mask id="mask0_78_368" style="mask-type:luminance" maskUnits="userSpaceOnUse" x="0" y="0" width="31" height="32">
<path fill-rule="evenodd" clip-rule="evenodd" d="M14.077 19.9423C14.059 19.8885 14.059 19.8885 14.0411 19.9243C13.8253 20.787 13.466 21.5774 12.9811 22.296C12.3707 23.1945 11.4548 23.8234 10.934 24.7932C10.6106 25.4041 10.4671 26.0151 10.5389 26.6441C10.5568 26.7158 10.5389 26.7337 10.503 26.662C10.216 26.2309 10.0719 25.7455 10.054 25.2068C10.0002 24.1469 10.3595 23.2663 11.0955 22.5476C11.3472 22.3139 11.6168 22.0628 11.9576 21.7932C12.5142 21.3436 12.8914 20.7691 13.1072 20.1043C13.1252 20.0504 13.1072 20.0504 13.0893 20.0863C12.4245 20.787 11.5803 21.1104 10.5747 21.0746C10.503 21.0746 10.503 21.0566 10.5747 21.0387C11.2933 20.787 11.8858 20.3739 12.3707 19.7808C13.0714 18.9002 13.2149 17.7506 12.6583 16.7803C12.5686 16.6009 12.4604 16.4389 12.3528 16.2595C12.3169 16.2057 12.299 16.2237 12.299 16.2775C12.3707 17.5533 11.6168 18.5409 10.5389 19.1519C10.5389 19.1698 10.5389 19.1698 10.5389 19.1698C10.5209 19.1698 10.5209 19.1519 10.5209 19.1519C11.1319 18.2539 11.3651 17.3016 11.5983 16.2057C11.6168 16.1878 11.5983 16.1878 11.5983 16.1878H11.5803C11.5803 16.1878 11.5803 16.1878 11.5624 16.1878C11.4548 16.4927 11.2933 16.8526 11.0596 17.2478C10.503 18.236 9.65882 18.7209 8.56353 18.7029C8.47384 18.7029 8.47384 18.685 8.54559 18.6491C9.58707 18.0919 10.1981 17.0319 10.6465 15.9899C10.6829 15.9182 10.665 15.9182 10.6285 15.972C10.2519 16.421 9.85669 16.8161 9.38976 17.1934C8.56353 17.8761 7.62967 18.0919 6.57025 17.8402C7.21655 17.5533 7.8096 17.1754 8.40209 16.7085C8.92283 16.2954 9.4077 15.8285 9.89256 15.343C10.0002 15.2354 9.98225 15.2175 9.85669 15.2892C9.2642 15.6665 8.65321 16.0078 8.00691 16.2954C6.53438 16.9602 5.06185 16.9781 3.84043 15.8105C3.75075 15.7382 3.66106 15.6665 3.60725 15.5947C3.57137 15.5589 3.57137 15.5589 3.62519 15.5768C4.46936 15.9182 5.40265 15.7562 6.24682 15.4507C7.4503 15.0196 8.61734 14.4989 9.74907 13.9058C9.74907 13.8879 9.74907 13.8879 9.74907 13.8879V13.87C9.74907 13.87 9.74907 13.87 9.73113 13.87C8.38416 14.2651 7.30624 14.5348 6.53438 14.7141C5.95983 14.8402 5.29503 14.8941 4.6846 14.8044C3.12238 14.6065 2.08034 13.4927 1.45198 12.0376C1.45198 12.0017 1.45198 12.0017 1.46992 12.0196C2.54727 13.1872 4.21768 13.4927 5.76196 13.3845C7.00131 13.2948 8.25803 13.0975 9.5512 12.7741C9.5512 12.7741 9.56913 12.7562 9.5512 12.7562V12.7382H9.53326C8.43797 12.7382 7.41442 12.7203 6.48057 12.7203C6.01364 12.7024 5.54671 12.6659 5.13359 12.6121C3.96599 12.4507 2.85276 11.8397 2.15265 10.8694C1.57754 10.0432 1.34436 9.05493 1.48785 7.88733C1.66779 6.35987 2.5114 4.90471 3.60725 3.80886H3.62519L3.64312 3.82679C2.96039 4.6889 2.67339 5.91087 2.61958 7.0426C2.58371 7.59978 2.63752 8.12052 2.76308 8.588C3.12238 9.86323 4.21768 10.7797 5.42115 11.1928C5.95983 11.3548 6.53438 11.5163 7.16274 11.6239L7.18068 11.6059C7.18068 11.588 7.18068 11.588 7.16274 11.588C5.86958 11.139 4.48729 10.3128 3.96599 9.01906C3.78662 8.62388 3.71487 8.12052 3.69694 7.52803C3.62519 4.16816 5.97777 0.880045 9.2642 0C9.31801 0 9.33595 0 9.28214 0.0358744C9.13808 0.161435 8.95871 0.251682 8.81521 0.377242C8.25803 0.84417 7.79111 1.38341 7.43236 1.99439C6.69581 3.25168 6.4985 4.59922 6.83931 6.03643C7.21655 7.68946 8.2401 9.21637 9.49738 10.3845C9.56913 10.4383 9.56913 10.4563 9.47945 10.4204C7.71936 9.66592 6.42676 8.35426 5.94189 6.48599C5.69021 5.55157 5.70815 4.63509 5.97776 3.71917C6.01364 3.53924 5.9957 3.53924 5.92395 3.70123C4.8281 5.69507 5.43909 8.04877 7.07306 9.55773C8.2401 10.6183 9.5512 11.2287 10.9879 11.3907C11.3292 11.4445 11.6706 11.4624 12.0293 11.4804C12.0652 11.4804 12.0837 11.4983 12.0652 11.5163C11.7423 13.259 12.281 14.7679 13.4481 16.0437C14.2743 16.9064 14.9027 17.625 15.3516 18.7209C15.6033 19.3139 15.6751 19.9243 15.8186 20.5533C16.0344 21.5235 16.3393 22.3318 16.7166 22.9966C17.0041 23.5 17.3634 24.0387 17.758 24.5959C18.1353 25.0987 18.387 25.6917 18.4946 26.3386C18.7278 27.8117 18.0277 29.0336 16.8062 29.8957C16.7704 29.9316 16.7704 29.9137 16.7883 29.8778C16.8427 29.7702 16.8965 29.6441 16.9324 29.5364C17.3455 28.2606 17.2373 27.0572 16.591 25.9075C16.2317 25.2965 15.9985 24.8475 15.8724 24.5779C15.4778 23.7511 15.2261 22.8531 15.1543 21.9008C15.1364 21.6132 15.1005 21.3077 15.0646 21.0207C15.0646 21.0022 15.0646 21.0022 15.0467 21.0022H15.0288C15.0108 21.5056 14.957 22.0084 14.8847 22.5118C14.7592 23.3559 14.4901 24.1648 14.059 24.9013C13.7894 25.3683 13.5562 25.8173 13.3584 26.213C12.8735 27.2186 12.7659 28.2791 13.0893 29.3929C13.1252 29.5544 13.1969 29.7164 13.3046 29.8778C13.3584 29.9495 13.3404 29.9675 13.2687 29.9137C12.0293 29.0516 11.383 27.7578 11.6168 26.2848C11.7244 25.6558 11.9755 25.0807 12.3886 24.5241C12.9273 23.8234 13.3404 23.1407 13.628 22.5118C14.0052 21.685 14.1487 20.8229 14.077 19.9423ZM16.4475 31.9439C15.1723 31.6026 14.346 30.5964 14.0949 29.3391C13.9329 28.4944 13.9329 27.704 14.1308 26.9316C14.346 26.0869 14.7412 25.2786 15.0108 24.4882C15.0288 24.4339 15.0646 24.4339 15.0826 24.4882C15.2799 25.0448 15.4957 25.5841 15.693 26.1048C16.0882 27.0572 16.1958 27.9916 16.0164 28.9075C15.8006 30.0034 15.7827 30.9557 16.4834 31.8901C16.5192 31.9439 16.5013 31.9619 16.4475 31.9439ZM17.4531 19.9966C17.3814 19.8705 17.3275 19.745 17.2732 19.6373C17.2552 19.5471 17.2732 19.5291 17.3275 19.6009C17.92 20.2298 18.656 20.7152 19.5361 21.0387C19.5899 21.0566 19.5899 21.0746 19.5361 21.0746C18.6201 21.1284 17.92 20.7691 17.4531 19.9966ZM16.3214 18.7388C16.5731 20.0146 17.2552 21.1822 18.3152 21.9546C18.9974 22.44 19.5899 23.0325 19.8774 23.8414C20.2188 24.8111 20.1285 25.7276 19.6257 26.6261C19.5899 26.7158 19.554 26.7158 19.5719 26.6082C19.6437 25.5482 19.1768 24.56 18.4408 23.8055C18.0994 23.4641 17.8124 23.1407 17.5248 22.7993C16.6269 21.7214 16.1958 20.4277 16.2496 18.9182C16.2496 18.8643 16.2676 18.7926 16.2855 18.7388C16.3034 18.685 16.3034 18.685 16.3214 18.7388ZM21.5652 28.6743C20.5596 29.1413 19.5002 29.5006 18.387 29.7522C18.3331 29.7702 18.3331 29.7522 18.369 29.7164C18.8898 29.1233 19.2491 28.4765 19.4464 27.7578C19.4464 27.7399 19.4643 27.722 19.4822 27.704C19.5181 27.6861 19.554 27.6502 19.5899 27.6502C21.7631 26.8055 23.6308 25.5303 25.1571 23.8234C25.5164 23.4098 25.8214 23.0146 26.1089 22.6015C27.8152 20.0684 28.5333 17.2298 28.2457 14.0858C28.2278 14.0314 28.2457 13.9776 28.2821 13.9417C28.9284 13.0617 29.3236 12.1093 29.4851 11.0673C29.503 10.9591 29.5209 10.9591 29.5568 11.0673C29.7905 11.9294 29.952 12.8459 30.0417 13.7803C30.401 17.5712 29.4851 20.9664 27.276 24.0028C25.8214 26.0151 23.7564 27.6502 21.5652 28.6743ZM11.7423 29.7702C8.68909 29.0516 5.9957 27.56 3.87631 25.2606C1.54167 22.727 0.176756 19.4933 0.0153212 16.0975C-0.0564276 14.4086 0.122945 12.7203 0.571936 11.0314C0.589873 10.9776 0.60781 10.9776 0.60781 11.0314C0.769806 11.8935 1.0568 12.7024 1.48785 13.421C1.61398 13.6183 1.75747 13.7803 1.8651 13.9596C1.88303 13.9955 1.88303 14.0135 1.88303 14.0493C1.27261 19.6373 4.34324 24.7214 9.33595 27.1289C9.73113 27.3089 10.1437 27.4882 10.5747 27.6682C10.6285 27.6861 10.665 27.722 10.665 27.7758C10.8623 28.5123 11.2216 29.1592 11.7603 29.7343C11.7782 29.7702 11.7782 29.7702 11.7423 29.7702ZM16.1061 10.7976C15.3516 11.9294 15.1185 13.1693 15.6571 14.463C15.8006 14.7864 15.9447 15.1278 16.1241 15.4692C16.4296 16.1155 16.591 16.7444 16.591 17.3554C16.591 17.4989 16.5731 17.4989 16.5372 17.3733C16.4116 16.8161 15.8909 16.2057 15.4778 15.8823C14.7771 15.2892 14.1308 14.7864 13.8432 13.8879C13.8074 13.7623 13.7894 13.6362 13.7535 13.5286C13.7177 13.4568 13.7177 13.4568 13.6997 13.5286C13.6639 14.3189 13.8432 14.9837 14.2384 15.5589C14.2922 15.6127 14.2743 15.6306 14.2205 15.5768C13.2866 14.9837 12.8556 14.1037 12.9273 12.9714C12.9811 12.0734 13.3584 11.3548 13.8612 10.6362C14.2564 10.0611 14.364 9.28868 13.8074 8.78531C13.6459 8.64182 13.4481 8.55213 13.1969 8.49776C12.6403 8.40807 12.1555 8.53363 11.7423 8.875C11.7065 8.8935 11.6885 8.8935 11.6885 8.85706C11.7065 8.35426 11.8679 7.85146 12.281 7.5639C12.4066 7.47365 12.5501 7.45572 12.6583 7.38397C12.6941 7.36603 12.7121 7.34809 12.7121 7.31222C12.8914 6.84529 13.1969 6.52186 13.6459 6.3778C13.9688 6.25224 14.364 6.12668 14.795 6.00056C15.5675 5.76738 16.1958 5.29989 16.6269 4.63509C16.7524 4.45572 16.8242 4.29372 16.8785 4.11435C16.9144 4.0241 16.9324 4.0241 16.9324 4.11435C17.022 4.94058 16.8062 5.73094 16.0344 6.16256C15.9268 6.21637 15.9447 6.2343 16.0523 6.19843C16.9324 5.96469 17.6863 5.40751 17.92 4.50953C17.938 4.45572 17.9559 4.45572 17.9559 4.50953C18.1353 5.62332 17.6683 6.82735 16.5013 7.09641C16.4475 7.11435 16.4475 7.13229 16.5013 7.15022C17.1655 7.36603 17.7401 7.33016 18.2608 7.0426C18.3331 7.00673 18.3511 7.02466 18.3152 7.11435C17.9559 7.72534 17.3993 8.04877 16.6089 8.12052C16.591 8.12052 16.591 8.13845 16.591 8.15639C17.3634 9.037 17.5428 10.2584 17.2194 11.3548C17.04 11.9652 16.8062 12.5583 16.7524 13.1693C16.6986 13.6003 16.7524 14.0135 16.8785 14.4086C16.9144 14.5168 16.8965 14.5348 16.8062 14.463C15.9268 13.6003 15.6751 12.3425 16.0344 11.1749C16.0703 11.0493 16.1061 10.9411 16.142 10.8156C16.1599 10.7618 16.1599 10.7438 16.1061 10.7976ZM13.9509 7.7074C14.364 7.63565 14.4901 7.34809 14.7592 7.07847C14.795 7.0426 14.795 7.02466 14.7412 7.02466C14.0949 7.07847 13.6101 7.16872 13.1252 7.67152C13.1072 7.68946 13.1252 7.7074 13.1431 7.7074C13.4301 7.74327 13.6997 7.74327 13.9509 7.7074ZM22.4632 4.59922C20.1829 2.87444 17.3275 1.94002 14.4722 2.10202C12.0652 2.22758 9.58707 3.07231 7.68348 4.58128C7.64761 4.59922 7.64761 4.59922 7.64761 4.56334C7.66554 3.77298 7.86341 3.00056 8.2401 2.28139C8.31241 2.17377 8.38415 2.08408 8.49178 2.03027C10.054 1.11379 11.8679 0.610986 13.6997 0.413117C16.4296 0.12556 19.2849 0.664798 21.7093 2.06614C21.7631 2.10202 21.799 2.13789 21.8169 2.17377C22.2479 2.91031 22.4632 3.71917 22.4811 4.59922C22.4811 4.61715 22.4632 4.61715 22.4632 4.59922ZM20.2547 13.8879C20.3982 13.9596 20.5237 14.0314 20.6678 14.1037C21.7272 14.6065 22.8046 15.0555 23.8998 15.4507C24.762 15.7562 25.6061 15.9182 26.4682 15.5947C26.54 15.5768 26.54 15.5768 26.5041 15.6306C25.5164 16.6009 24.4027 16.9423 23.1459 16.6726C22.7507 16.583 22.2659 16.403 21.7093 16.1155C21.1527 15.8464 20.6498 15.5589 20.1829 15.2713C20.1465 15.2354 20.1465 15.2354 20.1829 15.2892C20.883 16.0437 21.6734 16.7265 22.5714 17.3195C22.8584 17.5168 23.1639 17.6609 23.4867 17.7864C23.559 17.8223 23.559 17.8402 23.4867 17.8402C22.4094 18.074 21.5114 17.8946 20.6678 17.1575C20.2188 16.7803 19.8236 16.3672 19.4822 15.9361C19.4284 15.8643 19.4105 15.8643 19.4464 15.954C19.9133 17.0499 20.4879 18.0919 21.6016 18.667C21.6375 18.685 21.6375 18.7029 21.5831 18.7029C19.9671 18.7567 19.105 17.6967 18.6022 16.2954C18.5663 16.2237 18.5305 16.1513 18.5125 16.0796C18.4766 16.0258 18.4766 16.0258 18.4766 16.0796C18.6919 17.1396 18.9436 18.236 19.5719 19.116C19.5899 19.1519 19.5899 19.1698 19.554 19.1519C19.4464 19.0981 19.3746 19.0263 19.2849 18.9725C18.369 18.3615 17.8483 17.4989 17.758 16.403C17.7401 16.3851 17.7401 16.3851 17.7222 16.3851C17.7222 16.3851 17.7042 16.3851 17.7042 16.403L17.6504 16.5291C17.6325 16.6009 17.6145 16.6009 17.5966 16.5112C17.5069 15.5947 17.5787 14.6783 17.7945 13.7623C17.9918 13.0252 18.1891 12.3246 18.0815 11.5163C18.0815 11.4804 18.0815 11.4624 18.1173 11.4624C19.6078 11.4804 20.9548 11.0673 22.1762 10.2405C23.2715 9.50392 24.1695 8.47982 24.5467 7.24047C24.9234 5.94675 24.7978 4.72478 24.1336 3.59305C24.0977 3.53924 24.0977 3.53924 24.0977 3.59305C24.1157 3.68274 24.1515 3.75504 24.1695 3.84473C24.8158 6.3778 23.577 8.8935 21.2961 10.097C21.0624 10.2225 20.8113 10.3487 20.5596 10.4563C20.4879 10.4742 20.4879 10.4742 20.5237 10.4204C20.5955 10.3487 20.6857 10.2769 20.7575 10.2046C21.9604 9.10874 22.9481 7.52803 23.3074 5.94675C23.8281 3.57511 22.7687 1.43722 20.8472 0.0538117C20.7754 0 20.7933 0 20.8651 0.0179372C21.8528 0.305493 22.7149 0.736547 23.4329 1.34753C24.762 2.42545 25.642 3.73711 26.1089 5.28195C26.4324 6.32399 26.5579 7.58184 26.2883 8.60594C25.8752 10.2225 24.457 10.9955 23.0562 11.5701C22.966 11.6059 22.966 11.6059 23.0742 11.588C23.4329 11.5342 23.7922 11.4624 24.1515 11.3548C25.9116 10.8873 27.3483 9.68386 27.4918 7.79708C27.5815 6.64742 27.3842 5.55157 26.9172 4.56334C26.809 4.29372 26.6297 4.06054 26.4862 3.82679L26.5041 3.80886C26.5041 3.80886 26.5041 3.80886 26.522 3.80886C26.7194 4.0241 26.8993 4.23991 27.0787 4.45572C28.7126 6.41368 29.5389 9.46805 27.438 11.4445C26.5938 12.2528 25.4447 12.648 24.2592 12.6839C23.0921 12.7203 21.8348 12.7382 20.4699 12.7203C20.3444 12.7203 20.3444 12.7382 20.4699 12.7741C21.5831 13.0252 22.7507 13.2231 23.9537 13.3487C25.5882 13.5286 27.4559 13.3128 28.6409 12.0196C28.6768 11.9832 28.6768 11.9832 28.6588 12.0376C27.9587 13.6541 26.7552 14.8402 24.8875 14.8402C24.2233 14.8402 23.4867 14.7141 22.6611 14.4989C21.8528 14.2831 21.0445 14.0673 20.2726 13.852C20.2188 13.852 20.2009 13.852 20.2547 13.8879Z" fill="white"/>
</mask>
<g mask="url(#mask0_78_368)">
<path d="M-0.0566406 0V31.9619H30.4008V0H-0.0566406Z" fill="#BCC6CC"/>
</g>
</svg>
